<svg width="403" height="409" viewBox="0 0 403 409" fill="none" xmlns="http://www.w3.org/2000/svg">
<path fill-rule="evenodd" clip-rule="evenodd" d="M214.499 4.70672C251.409 8.72257 286.744 17.3899 318.207 37.0472C351.648 57.9407 386.465 82.2859 398.598 119.729C410.724 157.148 395.364 196.641 381.902 233.604C368.888 269.336 349.114 300.473 322.763 327.947C290.912 361.156 260.254 402.65 214.499 408.143C167.326 413.806 118.148 390.831 85.4789 356.432C55.1592 324.506 62.593 274.809 48.3525 233.197C33.7899 190.644 -7.66397 154.359 1.2406 110.282C10.2975 65.4512 51.8507 32.8741 92.9312 12.537C130.214 -5.92028 173.119 0.204519 214.499 4.70672Z" fill="#EBF8FF"/>
</svg>
