<svg width="664" height="662" viewBox="0 0 664 662" fill="none" xmlns="http://www.w3.org/2000/svg">
<path fill-rule="evenodd" clip-rule="evenodd" d="M182.015 155.137C226.908 132.423 277.897 176.519 328.173 173.997C378.182 171.49 424.522 121.496 470.825 140.654C517.256 159.865 532.976 217.666 548.916 265.329C564.205 311.049 576.218 360.784 559.55 405.962C543.535 449.371 495.87 468.288 462.299 500.096C424.855 535.574 402.352 592.881 351.726 602.87C299.824 613.111 245.85 585.382 205.802 550.706C168.72 518.598 159.573 467.833 142.62 421.812C125.994 376.677 101.037 332.915 108.061 285.369C115.544 234.715 136.36 178.237 182.015 155.137Z" fill="#EBF8FF"/>
</svg>
