<svg width="399" height="395" viewBox="0 0 399 395" fill="none" xmlns="http://www.w3.org/2000/svg">
<path fill-rule="evenodd" clip-rule="evenodd" d="M208.691 0.547732C247.188 2.66387 283.084 16.2153 315.403 37.2739C349.277 59.3456 386.445 84.0453 396.861 123.156C407.128 161.704 377.59 197.564 368.435 236.392C358.092 280.265 371.765 333.431 339.802 365.165C307.173 397.56 254.631 394.791 208.691 394.99C162.56 395.19 114.655 392.648 76.7551 366.303C38.41 339.649 11.7171 297.36 2.35043 251.558C-6.45469 208.502 11.1499 166.212 27.4943 125.425C42.7404 87.3796 59.3995 48.2926 93.1169 25.0551C126.373 2.13598 168.386 -1.66782 208.691 0.547732Z" fill="#EBF8FF"/>
</svg>
