<svg width="67" height="23" viewBox="0 0 67 23" fill="none"
  xmlns="http://www.w3.org/2000/svg">
  <path d="M34.3053 0.282715L29.075 5.23029H19.604C19.3919 5.39521 18.9679 5.62609 18.9679 6.07844C18.9679 6.53079 19.3919 6.691 19.604 6.71456H21.583C24.0097 7.0444 28.863 8.69359 28.863 12.6516C28.863 16.6097 24.0097 17.9762 21.583 18.1647H2.85291L7.44708 13.5705H21.583C21.8893 13.5469 22.5018 13.3302 22.5018 12.6516C22.5018 11.9731 21.8893 11.6621 21.583 11.5915H17.6956C16.1171 11.3794 12.9601 9.97996 12.9601 6.07844C12.9601 2.17693 16.1171 0.588993 17.6956 0.282715H34.3053Z" fill="#4299E1"/>
  <path d="M36.0017 0.282715L30.5593 5.15961V18.0233H36.0017V0.282715Z" fill="#4299E1"/>
  <path d="M51.2684 17.1751V12.5103H46.8863C45.8261 12.4396 43.7057 11.4077 43.7057 8.69359C43.7057 5.9795 45.8261 4.92401 46.8863 4.73553H58.2657L63.2133 0H60.8102H45.2607C42.622 0.376958 37.3445 2.64342 37.3445 8.69359C37.3445 14.7438 42.622 16.8689 45.2607 17.1751H51.2684Z" fill="#4299E1"/>
  <path d="M63.8494 0L59.1139 4.73553H61.4463L66.1819 0H63.8494Z" fill="#4299E1"/>
  <path d="M4.61987 13.5705L0.0256958 18.1647H2.35812L6.9523 13.5705H4.61987Z" fill="#4299E1"/>
  <path d="M1.40476 20.8899H1.97582C1.971 20.4284 1.60354 20.1164 1.03008 20.1164C0.466245 20.1164 0.0602383 20.4236 0.0638526 20.8826C0.0626478 21.2573 0.325287 21.4681 0.751774 21.5657L1.00959 21.626C1.28067 21.6886 1.40235 21.7621 1.40476 21.9007C1.40235 22.0512 1.26139 22.1561 1.02164 22.1561C0.757798 22.1561 0.584312 22.0332 0.571059 21.7958H0C0.0072286 22.3729 0.408416 22.6488 1.02887 22.6488C1.6433 22.6488 2.00714 22.3705 2.00955 21.9019C2.00714 21.5079 1.74089 21.2669 1.25416 21.1597L1.04212 21.1115C0.818036 21.0633 0.675874 20.9886 0.680693 20.8417C0.681898 20.7067 0.797555 20.6091 1.02887 20.6091C1.26139 20.6091 1.3891 20.714 1.40476 20.8899Z" fill="#4299E1"/>
  <path d="M2.68803 20.6344H3.43739V22.6175H4.02532V20.6344H4.77348V20.1501H2.68803V20.6344Z" fill="#4299E1"/>
  <path d="M7.01544 20.1501V21.6898C7.01544 21.9464 6.83352 22.1308 6.56727 22.1308C6.29981 22.1308 6.11909 21.9464 6.11909 21.6898V20.1501H5.52273V21.7416C5.52273 22.2934 5.93958 22.6488 6.56727 22.6488C7.19013 22.6488 7.61059 22.2934 7.61059 21.7416V20.1501H7.01544Z" fill="#4299E1"/>
  <path d="M9.35438 22.6175C10.1062 22.6175 10.5724 22.1537 10.5724 21.3826C10.5724 20.6128 10.1062 20.1501 9.35318 20.1501H8.44238V22.6175H9.35438ZM9.03874 22.1091V20.6585H9.32306C9.74714 20.6585 9.97484 20.8513 9.97484 21.3826C9.97484 21.9163 9.74714 22.1091 9.33149 22.1091H9.03874Z" fill="#4299E1"/>
  <path d="M11.3786 22.6175H13.099V22.1332H11.9749V21.626H13.011V21.1404H11.9749V20.6344H13.099V20.1501H11.3786V22.6175Z" fill="#4299E1"/>
  <path d="M16.0304 20.1501H15.4352V21.5718H15.4147L14.4437 20.1501H13.9305V22.6175H14.5268V21.1935H14.5425L15.5244 22.6175H16.0304V20.1501Z" fill="#4299E1"/>
  <path d="M16.7826 20.6344H17.532V22.6175H18.1199V20.6344H18.8681V20.1501H16.7826V20.6344Z" fill="#4299E1"/>
  <path d="M21.4006 20.1501H20.8042V22.6175H21.4006V20.1501Z" fill="#4299E1"/>
  <path d="M24.3329 20.1501H23.7377V21.5718H23.7173L22.7462 20.1501H22.233V22.6175H22.8293V21.1935H22.845L23.8269 22.6175H24.3329V20.1501Z" fill="#4299E1"/>
  <path d="M27.2658 20.1501H26.6706V21.5718H26.6502L25.6791 20.1501H25.1659V22.6175H25.7622V21.1935H25.7779L26.7598 22.6175H27.2658V20.1501Z" fill="#4299E1"/>
  <path d="M30.4276 21.3838C30.4276 20.5682 29.9119 20.1164 29.2493 20.1164C28.5843 20.1164 28.0723 20.5682 28.0723 21.3838C28.0723 22.1958 28.5843 22.6512 29.2493 22.6512C29.9119 22.6512 30.4276 22.1994 30.4276 21.3838ZM29.818 21.3838C29.818 21.8669 29.6059 22.1284 29.2493 22.1284C28.8939 22.1284 28.6807 21.8669 28.6807 21.3838C28.6807 20.9007 28.8939 20.6393 29.2493 20.6393C29.6059 20.6393 29.818 20.9007 29.818 21.3838Z" fill="#4299E1"/>
  <path d="M31.6482 20.1501H30.9808L31.8133 22.6175H32.6072L33.4397 20.1501H32.7723L32.2205 21.9573H32.2L31.6482 20.1501Z" fill="#4299E1"/>
  <path d="M34.3293 22.6175L34.492 22.0994H35.3437L35.5064 22.6175H36.1473L35.3148 20.1501H34.5209L33.6884 22.6175H34.3293ZM34.6341 21.6464L34.9076 20.7718H34.9269L35.2016 21.6464H34.6341Z" fill="#4299E1"/>
  <path d="M36.4821 20.6344H37.2315V22.6175H37.8194V20.6344H38.5676V20.1501H36.4821V20.6344Z" fill="#4299E1"/>
  <path d="M39.9132 20.1501H39.3168V22.6175H39.9132V20.1501Z" fill="#4299E1"/>
  <path d="M43.0744 21.3838C43.0744 20.5682 42.5587 20.1164 41.8961 20.1164C41.2311 20.1164 40.7191 20.5682 40.7191 21.3838C40.7191 22.1958 41.2311 22.6512 41.8961 22.6512C42.5587 22.6512 43.0744 22.1994 43.0744 21.3838ZM42.4648 21.3838C42.4648 21.8669 42.2527 22.1284 41.8961 22.1284C41.5407 22.1284 41.3275 21.8669 41.3275 21.3838C41.3275 20.9007 41.5407 20.6393 41.8961 20.6393C42.2527 20.6393 42.4648 20.9007 42.4648 21.3838Z" fill="#4299E1"/>
  <path d="M45.9805 20.1501H45.3853V21.5718H45.3648L44.3938 20.1501H43.8806V22.6175H44.4769V21.1935H44.4926L45.4745 22.6175H45.9805V20.1501Z" fill="#4299E1"/>
  <path d="M50.24 21.0441C50.1798 20.4537 49.74 20.1164 49.1437 20.1164C48.4859 20.1164 47.9738 20.5682 47.9738 21.3838C47.9738 22.1958 48.4738 22.6512 49.1437 22.6512C49.8207 22.6512 50.1954 22.191 50.24 21.7537L49.6376 21.7501C49.5955 21.9874 49.4172 22.1284 49.1557 22.1284C48.8039 22.1284 48.5822 21.8741 48.5822 21.3838C48.5822 20.9127 48.7991 20.6393 49.1593 20.6393C49.4304 20.6393 49.6075 20.7971 49.6376 21.0441H50.24Z" fill="#4299E1"/>
  <path d="M51.0393 22.6175H52.7597V22.1332H51.6356V21.626H52.6717V21.1404H51.6356V20.6344H52.7597V20.1501H51.0393V22.6175Z" fill="#4299E1"/>
  <path d="M55.6911 20.1501H55.0959V21.5718H55.0754L54.1044 20.1501H53.5911V22.6175H54.1875V21.1935H54.2032L55.1851 22.6175H55.6911V20.1501Z" fill="#4299E1"/>
  <path d="M56.4433 20.6344H57.1927V22.6175H57.7806V20.6344H58.5288V20.1501H56.4433V20.6344Z" fill="#4299E1"/>
  <path d="M59.278 22.6175H59.8744V21.7729H60.1804L60.631 22.6175H61.2816L60.7695 21.6778C61.0406 21.5549 61.1972 21.3127 61.1972 20.9718C61.1972 20.4646 60.8515 20.1501 60.2973 20.1501H59.278V22.6175ZM59.8744 21.3031V20.6308H60.1684C60.4358 20.6308 60.5792 20.7429 60.5792 20.9718C60.5792 21.2007 60.4358 21.3031 60.1684 21.3031H59.8744Z" fill="#4299E1"/>
  <path d="M61.9823 22.6175H63.7027V22.1332H62.5787V21.626H63.6148V21.1404H62.5787V20.6344H63.7027V20.1501H61.9823V22.6175Z" fill="#4299E1"/>
</svg>
