<svg width="469" height="161" viewBox="0 0 469 161" fill="none" xmlns="http://www.w3.org/2000/svg">
<path d="M243.5 2L206.5 37H139.5C138 38.1667 135 39.8 135 43C135 46.2 138 47.3333 139.5 47.5H153.5C170.667 49.8333 205 61.5 205 89.5C205 117.5 170.667 127.167 153.5 128.5H21L53.5 96H153.5C155.667 95.8333 160 94.3 160 89.5C160 84.7 155.667 82.5 153.5 82H126C114.833 80.5 92.5 70.6 92.5 43C92.5 15.4 114.833 4.16667 126 2H243.5Z" fill="#6EB8EB"/>
<path d="M255.5 2L217 36.5V127.5H255.5V2Z" fill="#6EB8EB"/>
<path d="M363.5 121.5V88.5H332.5C325 88 310 80.7 310 61.5C310 42.3 325 34.8333 332.5 33.5H413L448 0H431H321C302.333 2.66667 265 18.7 265 61.5C265 104.3 302.333 119.333 321 121.5H363.5Z" fill="#6EB8EB"/>
<path d="M452.5 0L419 33.5H435.5L469 0H452.5Z" fill="#6EB8EB"/>
<path d="M33.5 96L1 128.5H17.5L50 96H33.5Z" fill="#6EB8EB"/>
<path d="M10.7557 147.778H14.7955C14.7614 144.514 12.1619 142.307 8.10511 142.307C4.11647 142.307 1.24431 144.48 1.26988 147.727C1.26136 150.378 3.11931 151.869 6.13636 152.56L7.96022 152.986C9.87784 153.429 10.7386 153.949 10.7557 154.929C10.7386 155.994 9.74147 156.736 8.04545 156.736C6.17897 156.736 4.9517 155.867 4.85795 154.188H0.818176C0.869313 158.27 3.70738 160.222 8.09659 160.222C12.4432 160.222 15.017 158.253 15.0341 154.938C15.017 152.151 13.1335 150.446 9.69034 149.688L8.19034 149.347C6.60511 149.006 5.59943 148.477 5.63352 147.438C5.64204 146.483 6.46022 145.793 8.09659 145.793C9.74147 145.793 10.6449 146.534 10.7557 147.778Z" fill="#6EB8EB"/>
<path d="M19.8337 145.972H25.1349V160H29.294V145.972H34.5866V142.546H19.8337V145.972Z" fill="#6EB8EB"/>
<path d="M50.4466 142.546V153.438C50.4466 155.253 49.1597 156.557 47.2762 156.557C45.3841 156.557 44.1057 155.253 44.1057 153.438V142.546H39.887V153.804C39.887 157.707 42.8358 160.222 47.2762 160.222C51.6824 160.222 54.6568 157.707 54.6568 153.804V142.546H50.4466Z" fill="#6EB8EB"/>
<path d="M66.9927 160C72.3109 160 75.6092 156.719 75.6092 151.264C75.6092 145.818 72.3109 142.546 66.9842 142.546H60.541V160H66.9927ZM64.7598 156.403V146.142H66.7711C69.7711 146.142 71.3819 147.506 71.3819 151.264C71.3819 155.04 69.7711 156.403 66.8308 156.403H64.7598Z" fill="#6EB8EB"/>
<path d="M81.3123 160H93.4827V156.574H85.531V152.986H92.8606V149.551H85.531V145.972H93.4827V142.546H81.3123V160Z" fill="#6EB8EB"/>
<path d="M114.22 142.546H110.01V152.602H109.865L102.995 142.546H99.3648V160H103.584V149.926H103.694L110.64 160H114.22V142.546Z" fill="#6EB8EB"/>
<path d="M119.542 145.972H124.843V160H129.002V145.972H134.294V142.546H119.542V145.972Z" fill="#6EB8EB"/>
<path d="M152.21 142.546H147.991V160H152.21V142.546Z" fill="#6EB8EB"/>
<path d="M172.953 142.546H168.743V152.602H168.598L161.729 142.546H158.098V160H162.317V149.926H162.428L169.374 160H172.953V142.546Z" fill="#6EB8EB"/>
<path d="M193.701 142.546H189.491V152.602H189.346L182.477 142.546H178.846V160H183.065V149.926H183.176L190.122 160H193.701V142.546Z" fill="#6EB8EB"/>
<path d="M216.068 151.273C216.068 145.503 212.421 142.307 207.733 142.307C203.028 142.307 199.406 145.503 199.406 151.273C199.406 157.017 203.028 160.239 207.733 160.239C212.421 160.239 216.068 157.043 216.068 151.273ZM211.756 151.273C211.756 154.69 210.256 156.54 207.733 156.54C205.219 156.54 203.71 154.69 203.71 151.273C203.71 147.855 205.219 146.006 207.733 146.006C210.256 146.006 211.756 147.855 211.756 151.273Z" fill="#6EB8EB"/>
<path d="M224.703 142.546H219.982L225.871 160H231.487L237.376 142.546H232.655L228.751 155.33H228.607L224.703 142.546Z" fill="#6EB8EB"/>
<path d="M243.67 160L244.82 156.335H250.846L251.996 160H256.531L250.641 142.546H245.025L239.136 160H243.67ZM245.826 153.131L247.761 146.943H247.897L249.84 153.131H245.826Z" fill="#6EB8EB"/>
<path d="M258.899 145.972H264.2V160H268.359V145.972H273.652V142.546H258.899V145.972Z" fill="#6EB8EB"/>
<path d="M283.171 142.546H278.952V160H283.171V142.546Z" fill="#6EB8EB"/>
<path d="M305.534 151.273C305.534 145.503 301.886 142.307 297.199 142.307C292.494 142.307 288.872 145.503 288.872 151.273C288.872 157.017 292.494 160.239 297.199 160.239C301.886 160.239 305.534 157.043 305.534 151.273ZM301.221 151.273C301.221 154.69 299.721 156.54 297.199 156.54C294.684 156.54 293.176 154.69 293.176 151.273C293.176 147.855 294.684 146.006 297.199 146.006C299.721 146.006 301.221 147.855 301.221 151.273Z" fill="#6EB8EB"/>
<path d="M326.092 142.546H321.882V152.602H321.737L314.868 142.546H311.237V160H315.456V149.926H315.566L322.513 160H326.092V142.546Z" fill="#6EB8EB"/>
<path d="M356.225 148.869C355.799 144.693 352.688 142.307 348.469 142.307C343.816 142.307 340.194 145.503 340.194 151.273C340.194 157.017 343.73 160.239 348.469 160.239C353.259 160.239 355.909 156.983 356.225 153.889L351.963 153.864C351.665 155.543 350.404 156.54 348.554 156.54C346.066 156.54 344.497 154.742 344.497 151.273C344.497 147.94 346.032 146.006 348.58 146.006C350.497 146.006 351.75 147.122 351.963 148.869H356.225Z" fill="#6EB8EB"/>
<path d="M361.879 160H374.049V156.574H366.098V152.986H373.427V149.551H366.098V145.972H374.049V142.546H361.879V160Z" fill="#6EB8EB"/>
<path d="M394.786 142.546H390.576V152.602H390.431L383.562 142.546H379.931V160H384.15V149.926H384.261L391.207 160H394.786V142.546Z" fill="#6EB8EB"/>
<path d="M400.108 145.972H405.409V160H409.568V145.972H414.861V142.546H400.108V145.972Z" fill="#6EB8EB"/>
<path d="M420.161 160H424.38V154.026H426.545L429.732 160H434.335L430.712 153.352C432.63 152.483 433.738 150.77 433.738 148.358C433.738 144.77 431.292 142.546 427.372 142.546H420.161V160ZM424.38 150.702V145.946H426.46C428.352 145.946 429.366 146.739 429.366 148.358C429.366 149.977 428.352 150.702 426.46 150.702H424.38Z" fill="#6EB8EB"/>
<path d="M439.292 160H451.462V156.574H443.511V152.986H450.84V149.551H443.511V145.972H451.462V142.546H439.292V160Z" fill="#6EB8EB"/>
</svg>
