<svg width="401" height="395" viewBox="0 0 401 395" fill="none"
  xmlns="http://www.w3.org/2000/svg">
  <path fill-rule="evenodd" clip-rule="evenodd" d="M208.691 0.547731C247.188 2.66387 283.084 16.2153 315.403 37.2739C349.277 59.3456 386.445 84.0453 396.861 123.156C407.128 161.704 377.59 197.564 368.435 236.392C358.092 280.265 371.765 333.431 339.802 365.165C307.173 397.56 254.631 394.791 208.691 394.99C162.56 395.19 114.655 392.648 76.7551 366.303C38.41 339.649 11.7171 297.36 2.35043 251.558C-6.45469 208.502 11.1499 166.212 27.4943 125.425C42.7404 87.3796 59.3995 48.2926 93.1169 25.0551C126.373 2.13598 168.386 -1.66782 208.691 0.547731Z" fill="#EBF8FF"/>
  <g filter="url(#filter0_d)">
    <rect x="20" y="20" width="358" height="349" rx="10" fill="white"/>
  </g>
  <path d="M168.44 44.4545V59H171.423V49.4972H171.544L175.308 58.929H177.339L181.103 49.5327H181.224V59H184.207V44.4545H180.414L176.409 54.2273H176.238L172.233 44.4545H168.44ZM188.552 63.0909C190.803 63.0909 191.996 61.9403 192.614 60.179L196.854 48.1051L193.651 48.0909L191.371 56.1023H191.258L188.999 48.0909H185.817L189.731 59.3125L189.553 59.7741C189.156 60.7969 188.396 60.8466 187.33 60.5199L186.648 62.7784C187.082 62.9631 187.785 63.0909 188.552 63.0909ZM215.922 49.5469C215.517 46.1875 212.975 44.2557 209.608 44.2557C205.766 44.2557 202.833 46.9688 202.833 51.7273C202.833 56.4716 205.716 59.1989 209.608 59.1989C213.337 59.1989 215.588 56.7202 215.922 54.0426L212.811 54.0284C212.52 55.5838 211.299 56.4787 209.658 56.4787C207.449 56.4787 205.951 54.8381 205.951 51.7273C205.951 48.7017 207.428 46.9759 209.679 46.9759C211.363 46.9759 212.577 47.9489 212.811 49.5469H215.922ZM220.755 44.4545H217.339L222.36 59H226.324L231.338 44.4545H227.929L224.406 55.5057H224.271L220.755 44.4545Z" fill="#2D3748"/>
  <path d="M46.9504 135.818V146H49.0384V139.348H49.123L51.7579 145.95H53.1798L55.8147 139.373H55.8992V146H57.9873V135.818H55.3325L52.5285 142.659H52.4092L49.6052 135.818H46.9504ZM61.0287 148.864C62.6047 148.864 63.4399 148.058 63.8724 146.825L66.8405 138.374L64.5983 138.364L63.0024 143.972H62.9229L61.3419 138.364H59.1146L61.854 146.219L61.7297 146.542C61.4513 147.258 60.9193 147.293 60.1736 147.064L59.6963 148.645C59.9996 148.774 60.4917 148.864 61.0287 148.864ZM71.2043 146H73.357V142.699H75.1666C77.5083 142.699 78.8705 141.302 78.8705 139.268C78.8705 137.245 77.5331 135.818 75.2213 135.818H71.2043V146ZM73.357 140.974V137.578H74.8087C76.0516 137.578 76.6531 138.254 76.6531 139.268C76.6531 140.278 76.0516 140.974 74.8186 140.974H73.357ZM80.229 146H82.3469V141.68C82.3469 140.74 83.0329 140.094 83.9676 140.094C84.2609 140.094 84.6636 140.143 84.8625 140.208V138.329C84.6736 138.284 84.4101 138.254 84.1963 138.254C83.3412 138.254 82.6402 138.751 82.3618 139.696H82.2822V138.364H80.229V146ZM89.0523 146.149C91.3691 146.149 92.8108 144.563 92.8108 142.212C92.8108 139.845 91.3691 138.264 89.0523 138.264C86.7355 138.264 85.2938 139.845 85.2938 142.212C85.2938 144.563 86.7355 146.149 89.0523 146.149ZM89.0622 144.509C87.9933 144.509 87.4465 143.529 87.4465 142.197C87.4465 140.864 87.9933 139.88 89.0622 139.88C90.1112 139.88 90.6581 140.864 90.6581 142.197C90.6581 143.529 90.1112 144.509 89.0622 144.509ZM94.1879 138.364V146.343C94.1879 146.92 93.9443 147.208 93.2632 147.208C93.1737 147.208 93.0942 147.208 92.9848 147.198V148.854C93.1389 148.859 93.2632 148.864 93.4124 148.864C95.2121 148.864 96.3058 148.148 96.3058 146.378V138.364H94.1879ZM95.2419 137.379C95.8733 137.379 96.3904 136.897 96.3904 136.305C96.3904 135.719 95.8733 135.237 95.2419 135.237C94.6155 135.237 94.0985 135.719 94.0985 136.305C94.0985 136.897 94.6155 137.379 95.2419 137.379ZM101.483 146.149C103.372 146.149 104.644 145.229 104.943 143.812L102.984 143.683C102.77 144.265 102.223 144.568 101.517 144.568C100.458 144.568 99.7872 143.867 99.7872 142.729V142.724H104.987V142.142C104.987 139.547 103.416 138.264 101.398 138.264C99.1508 138.264 97.6942 139.86 97.6942 142.217C97.6942 144.638 99.1309 146.149 101.483 146.149ZM99.7872 141.411C99.8319 140.541 100.493 139.845 101.433 139.845C102.353 139.845 102.989 140.501 102.994 141.411H99.7872ZM109.82 146.149C111.853 146.149 113.131 144.956 113.23 143.201H111.232C111.108 144.016 110.571 144.474 109.845 144.474C108.855 144.474 108.214 143.643 108.214 142.182C108.214 140.74 108.86 139.915 109.845 139.915C110.62 139.915 111.117 140.427 111.232 141.188H113.23C113.141 139.423 111.804 138.264 109.81 138.264C107.493 138.264 106.061 139.87 106.061 142.212C106.061 144.533 107.468 146.149 109.82 146.149ZM118.648 138.364H117.211V136.534H115.093V138.364H114.049V139.955H115.093V143.932C115.084 145.428 116.103 146.169 117.639 146.104C118.186 146.085 118.574 145.975 118.787 145.906L118.454 144.33C118.35 144.349 118.126 144.399 117.927 144.399C117.505 144.399 117.211 144.24 117.211 143.653V139.955H118.648V138.364ZM126.272 140.541C126.083 139.134 124.95 138.264 123.021 138.264C121.067 138.264 119.779 139.169 119.784 140.641C119.779 141.784 120.5 142.525 121.992 142.823L123.314 143.087C123.98 143.221 124.283 143.464 124.293 143.847C124.283 144.3 123.791 144.623 123.051 144.623C122.295 144.623 121.793 144.3 121.663 143.678L119.58 143.788C119.779 145.249 121.022 146.149 123.046 146.149C125.024 146.149 126.441 145.14 126.446 143.634C126.441 142.53 125.72 141.869 124.239 141.565L122.857 141.287C122.146 141.133 121.882 140.889 121.887 140.521C121.882 140.064 122.399 139.766 123.055 139.766C123.791 139.766 124.229 140.168 124.333 140.661L126.272 140.541Z" fill="#2D3748"/>
  <path d="M51.6037 156.672H53.125C53.0952 155.197 51.8381 154.153 49.9801 154.153C48.1477 154.153 46.7713 155.185 46.7756 156.727C46.7756 157.98 47.6662 158.7 49.1023 159.071L50.0952 159.327C51.0369 159.565 51.6591 159.859 51.6634 160.537C51.6591 161.283 50.9517 161.781 49.9205 161.781C48.9318 161.781 48.1648 161.338 48.1009 160.422H46.5455C46.6094 162.156 47.9006 163.132 49.9332 163.132C52.0256 163.132 53.2401 162.088 53.2443 160.55C53.2401 159.037 51.9915 158.347 50.679 158.036L49.8608 157.831C49.1449 157.661 48.3693 157.358 48.3778 156.629C48.3821 155.973 48.9702 155.491 49.9588 155.491C50.9006 155.491 51.5227 155.93 51.6037 156.672ZM56.2347 154.273H54.6538V163H56.2347V154.273ZM65.4169 157.217C65.1484 155.278 63.657 154.153 61.7223 154.153C59.4425 154.153 57.7251 155.815 57.7251 158.636C57.7251 161.453 59.4212 163.119 61.7223 163.119C63.7976 163.119 65.174 161.777 65.4169 160.111L63.8232 160.102C63.6229 161.125 62.7876 161.7 61.7436 161.7C60.3288 161.7 59.3146 160.639 59.3146 158.636C59.3146 156.668 60.3203 155.572 61.7479 155.572C62.8089 155.572 63.6399 156.173 63.8232 157.217H65.4169ZM71.4222 154.273H69.8413V163H71.4222V154.273ZM73.0661 163H74.6087V159.02C74.6087 158.214 75.1456 157.669 75.8104 157.669C76.4624 157.669 76.9098 158.108 76.9098 158.781V163H78.4226V158.918C78.4226 158.18 78.8615 157.669 79.6072 157.669C80.2294 157.669 80.7237 158.036 80.7237 158.845V163H82.2706V158.607C82.2706 157.145 81.4268 156.369 80.2251 156.369C79.2749 156.369 78.5504 156.838 78.2607 157.567H78.1925C77.9411 156.825 77.3061 156.369 76.424 156.369C75.5462 156.369 74.8899 156.821 74.6172 157.567H74.5405V156.455H73.0661V163ZM83.8356 163H85.3782V159.02C85.3782 158.214 85.9151 157.669 86.5799 157.669C87.2319 157.669 87.6793 158.108 87.6793 158.781V163H89.1921V158.918C89.1921 158.18 89.631 157.669 90.3768 157.669C90.9989 157.669 91.4933 158.036 91.4933 158.845V163H93.0401V158.607C93.0401 157.145 92.1964 156.369 90.9947 156.369C90.0444 156.369 89.32 156.838 89.0302 157.567H88.962C88.7106 156.825 88.0756 156.369 87.1935 156.369C86.3157 156.369 85.6594 156.821 85.3867 157.567H85.31V156.455H83.8356V163ZM97.5028 163.128C99.0284 163.128 100.077 162.382 100.349 161.244L98.9091 161.082C98.7003 161.636 98.1889 161.926 97.5241 161.926C96.527 161.926 95.8665 161.27 95.8537 160.149H100.413V159.676C100.413 157.379 99.0327 156.369 97.4219 156.369C95.5469 156.369 94.3239 157.746 94.3239 159.766C94.3239 161.82 95.5298 163.128 97.5028 163.128ZM95.858 159.109C95.9048 158.274 96.5227 157.571 97.4432 157.571C98.3295 157.571 98.9261 158.219 98.9347 159.109H95.858ZM101.718 163H103.261V159.152C103.261 158.321 103.887 157.733 104.735 157.733C104.995 157.733 105.319 157.78 105.451 157.822V156.403C105.311 156.378 105.068 156.361 104.897 156.361C104.147 156.361 103.521 156.787 103.282 157.545H103.214V156.455H101.718V163ZM111.65 158.185C111.436 157.077 110.55 156.369 109.016 156.369C107.439 156.369 106.365 157.145 106.37 158.355C106.365 159.31 106.953 159.94 108.211 160.2L109.327 160.435C109.928 160.567 110.209 160.81 110.209 161.18C110.209 161.628 109.723 161.964 108.99 161.964C108.283 161.964 107.823 161.658 107.691 161.07L106.186 161.214C106.378 162.416 107.388 163.128 108.995 163.128C110.631 163.128 111.786 162.28 111.79 161.04C111.786 160.107 111.185 159.536 109.949 159.267L108.833 159.028C108.168 158.879 107.904 158.649 107.908 158.27C107.904 157.827 108.394 157.52 109.037 157.52C109.749 157.52 110.124 157.908 110.243 158.338L111.65 158.185ZM115.96 163.128C117.485 163.128 118.534 162.382 118.806 161.244L117.366 161.082C117.157 161.636 116.646 161.926 115.981 161.926C114.984 161.926 114.324 161.27 114.311 160.149H118.87V159.676C118.87 157.379 117.49 156.369 115.879 156.369C114.004 156.369 112.781 157.746 112.781 159.766C112.781 161.82 113.987 163.128 115.96 163.128ZM114.315 159.109C114.362 158.274 114.98 157.571 115.9 157.571C116.787 157.571 117.383 158.219 117.392 159.109H114.315ZM123.22 163H124.801V160.051H126.472C128.487 160.051 129.57 158.841 129.57 157.162C129.57 155.496 128.5 154.273 126.493 154.273H123.22V163ZM124.801 158.751V155.594H126.25C127.435 155.594 127.959 156.233 127.959 157.162C127.959 158.091 127.435 158.751 126.259 158.751H124.801ZM130.875 163H132.417V159.152C132.417 158.321 133.044 157.733 133.892 157.733C134.152 157.733 134.475 157.78 134.608 157.822V156.403C134.467 156.378 134.224 156.361 134.054 156.361C133.304 156.361 132.677 156.787 132.439 157.545H132.37V156.455H130.875V163ZM138.218 163.128C140.136 163.128 141.354 161.777 141.354 159.753C141.354 157.724 140.136 156.369 138.218 156.369C136.3 156.369 135.082 157.724 135.082 159.753C135.082 161.777 136.3 163.128 138.218 163.128ZM138.227 161.892C137.165 161.892 136.646 160.946 136.646 159.749C136.646 158.551 137.165 157.592 138.227 157.592C139.271 157.592 139.79 158.551 139.79 159.749C139.79 160.946 139.271 161.892 138.227 161.892ZM142.664 156.455V163.354C142.664 163.903 142.429 164.197 141.837 164.197C141.76 164.197 141.701 164.193 141.615 164.189V165.446C141.726 165.455 141.82 165.455 141.931 165.455C143.375 165.455 144.206 164.79 144.206 163.375V156.455H142.664ZM143.431 155.526C143.921 155.526 144.321 155.151 144.321 154.69C144.321 154.226 143.921 153.851 143.431 153.851C142.936 153.851 142.536 154.226 142.536 154.69C142.536 155.151 142.936 155.526 143.431 155.526ZM148.69 163.128C150.216 163.128 151.264 162.382 151.537 161.244L150.097 161.082C149.888 161.636 149.376 161.926 148.712 161.926C147.714 161.926 147.054 161.27 147.041 160.149H151.601V159.676C151.601 157.379 150.22 156.369 148.609 156.369C146.734 156.369 145.511 157.746 145.511 159.766C145.511 161.82 146.717 163.128 148.69 163.128ZM147.045 159.109C147.092 158.274 147.71 157.571 148.631 157.571C149.517 157.571 150.114 158.219 150.122 159.109H147.045ZM155.761 163.128C157.406 163.128 158.454 162.152 158.565 160.763H157.091C156.958 161.466 156.451 161.871 155.774 161.871C154.811 161.871 154.189 161.065 154.189 159.727C154.189 158.406 154.824 157.614 155.774 157.614C156.515 157.614 156.971 158.091 157.091 158.722H158.565C158.458 157.303 157.35 156.369 155.752 156.369C153.835 156.369 152.625 157.754 152.625 159.753C152.625 161.734 153.805 163.128 155.761 163.128ZM163.1 156.455H161.809V154.886H160.266V156.455H159.337V157.648H160.266V161.287C160.258 162.518 161.153 163.124 162.312 163.089C162.751 163.077 163.053 162.991 163.219 162.936L162.96 161.73C162.874 161.751 162.7 161.79 162.508 161.79C162.12 161.79 161.809 161.653 161.809 161.031V157.648H163.1V156.455ZM170.9 154.273H169.395L167.226 155.666V157.115L169.267 155.811H169.319V163H170.9V154.273Z" fill="#2D3748"/>
  <path d="M51.6037 260.672H53.125C53.0952 259.197 51.8381 258.153 49.9801 258.153C48.1477 258.153 46.7713 259.185 46.7756 260.727C46.7756 261.98 47.6662 262.7 49.1023 263.071L50.0952 263.327C51.0369 263.565 51.6591 263.859 51.6634 264.537C51.6591 265.283 50.9517 265.781 49.9205 265.781C48.9318 265.781 48.1648 265.338 48.1009 264.422H46.5455C46.6094 266.156 47.9006 267.132 49.9332 267.132C52.0256 267.132 53.2401 266.088 53.2443 264.55C53.2401 263.037 51.9915 262.347 50.679 262.036L49.8608 261.831C49.1449 261.661 48.3693 261.358 48.3778 260.629C48.3821 259.973 48.9702 259.491 49.9588 259.491C50.9006 259.491 51.5227 259.93 51.6037 260.672ZM56.2347 258.273H54.6538V267H56.2347V258.273ZM65.4169 261.217C65.1484 259.278 63.657 258.153 61.7223 258.153C59.4425 258.153 57.7251 259.815 57.7251 262.636C57.7251 265.453 59.4212 267.119 61.7223 267.119C63.7976 267.119 65.174 265.777 65.4169 264.111L63.8232 264.102C63.6229 265.125 62.7876 265.7 61.7436 265.7C60.3288 265.7 59.3146 264.639 59.3146 262.636C59.3146 260.668 60.3203 259.572 61.7479 259.572C62.8089 259.572 63.6399 260.173 63.8232 261.217H65.4169ZM71.4222 258.273H69.8413V267H71.4222V258.273ZM73.0661 267H74.6087V263.02C74.6087 262.214 75.1456 261.669 75.8104 261.669C76.4624 261.669 76.9098 262.108 76.9098 262.781V267H78.4226V262.918C78.4226 262.18 78.8615 261.669 79.6072 261.669C80.2294 261.669 80.7237 262.036 80.7237 262.845V267H82.2706V262.607C82.2706 261.145 81.4268 260.369 80.2251 260.369C79.2749 260.369 78.5504 260.838 78.2607 261.567H78.1925C77.9411 260.825 77.3061 260.369 76.424 260.369C75.5462 260.369 74.8899 260.821 74.6172 261.567H74.5405V260.455H73.0661V267ZM83.8356 267H85.3782V263.02C85.3782 262.214 85.9151 261.669 86.5799 261.669C87.2319 261.669 87.6793 262.108 87.6793 262.781V267H89.1921V262.918C89.1921 262.18 89.631 261.669 90.3768 261.669C90.9989 261.669 91.4933 262.036 91.4933 262.845V267H93.0401V262.607C93.0401 261.145 92.1964 260.369 90.9947 260.369C90.0444 260.369 89.32 260.838 89.0302 261.567H88.962C88.7106 260.825 88.0756 260.369 87.1935 260.369C86.3157 260.369 85.6594 260.821 85.3867 261.567H85.31V260.455H83.8356V267ZM97.5028 267.128C99.0284 267.128 100.077 266.382 100.349 265.244L98.9091 265.082C98.7003 265.636 98.1889 265.926 97.5241 265.926C96.527 265.926 95.8665 265.27 95.8537 264.149H100.413V263.676C100.413 261.379 99.0327 260.369 97.4219 260.369C95.5469 260.369 94.3239 261.746 94.3239 263.766C94.3239 265.82 95.5298 267.128 97.5028 267.128ZM95.858 263.109C95.9048 262.274 96.5227 261.571 97.4432 261.571C98.3295 261.571 98.9261 262.219 98.9347 263.109H95.858ZM101.718 267H103.261V263.152C103.261 262.321 103.887 261.733 104.735 261.733C104.995 261.733 105.319 261.78 105.451 261.822V260.403C105.311 260.378 105.068 260.361 104.897 260.361C104.147 260.361 103.521 260.787 103.282 261.545H103.214V260.455H101.718V267ZM111.65 262.185C111.436 261.077 110.55 260.369 109.016 260.369C107.439 260.369 106.365 261.145 106.37 262.355C106.365 263.31 106.953 263.94 108.211 264.2L109.327 264.435C109.928 264.567 110.209 264.81 110.209 265.18C110.209 265.628 109.723 265.964 108.99 265.964C108.283 265.964 107.823 265.658 107.691 265.07L106.186 265.214C106.378 266.416 107.388 267.128 108.995 267.128C110.631 267.128 111.786 266.28 111.79 265.04C111.786 264.107 111.185 263.536 109.949 263.267L108.833 263.028C108.168 262.879 107.904 262.649 107.908 262.27C107.904 261.827 108.394 261.52 109.037 261.52C109.749 261.52 110.124 261.908 110.243 262.338L111.65 262.185ZM115.96 267.128C117.485 267.128 118.534 266.382 118.806 265.244L117.366 265.082C117.157 265.636 116.646 265.926 115.981 265.926C114.984 265.926 114.324 265.27 114.311 264.149H118.87V263.676C118.87 261.379 117.49 260.369 115.879 260.369C114.004 260.369 112.781 261.746 112.781 263.766C112.781 265.82 113.987 267.128 115.96 267.128ZM114.315 263.109C114.362 262.274 114.98 261.571 115.9 261.571C116.787 261.571 117.383 262.219 117.392 263.109H114.315ZM123.22 267H124.801V264.051H126.472C128.487 264.051 129.57 262.841 129.57 261.162C129.57 259.496 128.5 258.273 126.493 258.273H123.22V267ZM124.801 262.751V259.594H126.25C127.435 259.594 127.959 260.233 127.959 261.162C127.959 262.091 127.435 262.751 126.259 262.751H124.801ZM130.875 267H132.417V263.152C132.417 262.321 133.044 261.733 133.892 261.733C134.152 261.733 134.475 261.78 134.608 261.822V260.403C134.467 260.378 134.224 260.361 134.054 260.361C133.304 260.361 132.677 260.787 132.439 261.545H132.37V260.455H130.875V267ZM138.218 267.128C140.136 267.128 141.354 265.777 141.354 263.753C141.354 261.724 140.136 260.369 138.218 260.369C136.3 260.369 135.082 261.724 135.082 263.753C135.082 265.777 136.3 267.128 138.218 267.128ZM138.227 265.892C137.165 265.892 136.646 264.946 136.646 263.749C136.646 262.551 137.165 261.592 138.227 261.592C139.271 261.592 139.79 262.551 139.79 263.749C139.79 264.946 139.271 265.892 138.227 265.892ZM142.664 260.455V267.354C142.664 267.903 142.429 268.197 141.837 268.197C141.76 268.197 141.701 268.193 141.615 268.189V269.446C141.726 269.455 141.82 269.455 141.931 269.455C143.375 269.455 144.206 268.79 144.206 267.375V260.455H142.664ZM143.431 259.526C143.921 259.526 144.321 259.151 144.321 258.69C144.321 258.226 143.921 257.851 143.431 257.851C142.936 257.851 142.536 258.226 142.536 258.69C142.536 259.151 142.936 259.526 143.431 259.526ZM148.69 267.128C150.216 267.128 151.264 266.382 151.537 265.244L150.097 265.082C149.888 265.636 149.376 265.926 148.712 265.926C147.714 265.926 147.054 265.27 147.041 264.149H151.601V263.676C151.601 261.379 150.22 260.369 148.609 260.369C146.734 260.369 145.511 261.746 145.511 263.766C145.511 265.82 146.717 267.128 148.69 267.128ZM147.045 263.109C147.092 262.274 147.71 261.571 148.631 261.571C149.517 261.571 150.114 262.219 150.122 263.109H147.045ZM155.761 267.128C157.406 267.128 158.454 266.152 158.565 264.763H157.091C156.958 265.466 156.451 265.871 155.774 265.871C154.811 265.871 154.189 265.065 154.189 263.727C154.189 262.406 154.824 261.614 155.774 261.614C156.515 261.614 156.971 262.091 157.091 262.722H158.565C158.458 261.303 157.35 260.369 155.752 260.369C153.835 260.369 152.625 261.754 152.625 263.753C152.625 265.734 153.805 267.128 155.761 267.128ZM163.1 260.455H161.809V258.886H160.266V260.455H159.337V261.648H160.266V265.287C160.258 266.518 161.153 267.124 162.312 267.089C162.751 267.077 163.053 266.991 163.219 266.936L162.96 265.73C162.874 265.751 162.7 265.79 162.508 265.79C162.12 265.79 161.809 265.653 161.809 265.031V261.648H163.1V260.455ZM167.35 267H173.333V265.679H169.532V265.619L171.036 264.089C172.732 262.462 173.201 261.669 173.201 260.685C173.201 259.223 172.012 258.153 170.256 258.153C168.526 258.153 167.299 259.227 167.299 260.885H168.803C168.803 259.994 169.365 259.436 170.235 259.436C171.066 259.436 171.684 259.943 171.684 260.766C171.684 261.494 171.24 262.014 170.38 262.888L167.35 265.858V267Z" fill="#2D3748"/>
  <path d="M55 179.398C56.0355 179.398 56.875 178.558 56.875 177.523C56.875 176.487 56.0355 175.648 55 175.648C53.9645 175.648 53.125 176.487 53.125 177.523C53.125 178.558 53.9645 179.398 55 179.398ZM66.1136 172.273H65.0568V181H66.1136V172.273ZM68.0962 181H69.1019V176.909C69.1019 175.95 69.8008 175.273 70.5849 175.273C71.3477 175.273 71.8803 175.771 71.8803 176.517V181H72.9031V176.739C72.9031 175.895 73.4315 175.273 74.3519 175.273C75.0678 175.273 75.6815 175.652 75.6815 176.619V181H76.6871V176.619C76.6871 175.081 75.8604 174.369 74.6928 174.369C73.7553 174.369 73.0692 174.8 72.7326 175.477H72.6644C72.3406 174.778 71.7695 174.369 70.9087 174.369C70.0565 174.369 69.4258 174.778 69.1531 175.477H69.0678V174.455H68.0962V181ZM78.5259 183.455H79.5316V179.994H79.6168C79.8384 180.352 80.2646 181.136 81.5259 181.136C83.1623 181.136 84.3043 179.824 84.3043 177.744C84.3043 175.682 83.1623 174.369 81.5089 174.369C80.2305 174.369 79.8384 175.153 79.6168 175.494H79.4975V174.455H78.5259V183.455ZM79.5146 177.727C79.5146 176.261 80.1623 175.273 81.3896 175.273C82.668 175.273 83.2987 176.347 83.2987 177.727C83.2987 179.125 82.6509 180.233 81.3896 180.233C80.1793 180.233 79.5146 179.21 79.5146 177.727ZM86.8441 172.273H85.8384V181H86.8441V172.273ZM91.4304 181.136C92.7599 181.136 93.7315 180.472 94.0384 179.483L93.0668 179.21C92.8111 179.892 92.2188 180.233 91.4304 180.233C90.25 180.233 89.4361 179.47 89.3892 178.068H94.1406V177.642C94.1406 175.205 92.6918 174.369 91.3281 174.369C89.5554 174.369 88.3793 175.767 88.3793 177.778C88.3793 179.79 89.5384 181.136 91.4304 181.136ZM89.3892 177.199C89.4574 176.18 90.1776 175.273 91.3281 175.273C92.419 175.273 93.1179 176.091 93.1179 177.199H89.3892ZM95.6705 181H96.6761V176.909C96.6761 175.95 97.375 175.273 98.1591 175.273C98.9219 175.273 99.4545 175.771 99.4545 176.517V181H100.477V176.739C100.477 175.895 101.006 175.273 101.926 175.273C102.642 175.273 103.256 175.652 103.256 176.619V181H104.261V176.619C104.261 175.081 103.435 174.369 102.267 174.369C101.33 174.369 100.643 174.8 100.307 175.477H100.239C99.9148 174.778 99.3438 174.369 98.483 174.369C97.6307 174.369 97 174.778 96.7273 175.477H96.642V174.455H95.6705V181ZM108.844 181.136C110.174 181.136 111.146 180.472 111.452 179.483L110.481 179.21C110.225 179.892 109.633 180.233 108.844 180.233C107.664 180.233 106.85 179.47 106.803 178.068H111.555V177.642C111.555 175.205 110.106 174.369 108.742 174.369C106.969 174.369 105.793 175.767 105.793 177.778C105.793 179.79 106.952 181.136 108.844 181.136ZM106.803 177.199C106.871 176.18 107.592 175.273 108.742 175.273C109.833 175.273 110.532 176.091 110.532 177.199H106.803ZM114.09 177.062C114.09 175.92 114.798 175.273 115.761 175.273C116.694 175.273 117.261 175.882 117.261 176.909V181H118.266V176.841C118.266 175.17 117.376 174.369 116.05 174.369C115.062 174.369 114.448 174.812 114.141 175.477H114.056V174.455H113.085V181H114.09V177.062ZM122.951 174.455H121.553V172.886H120.547V174.455H119.559V175.307H120.547V179.398C120.547 180.54 121.468 181.085 122.32 181.085C122.695 181.085 122.934 181.017 123.07 180.966L122.865 180.062C122.78 180.08 122.644 180.114 122.422 180.114C121.979 180.114 121.553 179.977 121.553 179.125V175.307H122.951V174.455ZM127.137 181.136C128.467 181.136 129.439 180.472 129.745 179.483L128.774 179.21C128.518 179.892 127.926 180.233 127.137 180.233C125.957 180.233 125.143 179.47 125.096 178.068H129.848V177.642C129.848 175.205 128.399 174.369 127.035 174.369C125.262 174.369 124.086 175.767 124.086 177.778C124.086 179.79 125.245 181.136 127.137 181.136ZM125.096 177.199C125.164 176.18 125.885 175.273 127.035 175.273C128.126 175.273 128.825 176.091 128.825 177.199H125.096ZM133.849 181.136C135.11 181.136 135.537 180.352 135.758 179.994H135.877V181H136.849V172.273H135.843V175.494H135.758C135.537 175.153 135.145 174.369 133.866 174.369C132.213 174.369 131.071 175.682 131.071 177.744C131.071 179.824 132.213 181.136 133.849 181.136ZM133.985 180.233C132.724 180.233 132.076 179.125 132.076 177.727C132.076 176.347 132.707 175.273 133.985 175.273C135.213 175.273 135.86 176.261 135.86 177.727C135.86 179.21 135.196 180.233 133.985 180.233ZM142.342 172.273V181H143.331V174.369H143.416L146.143 181H147.098L149.825 174.369H149.91V181H150.899V172.273H149.637L146.672 179.517H146.569L143.603 172.273H142.342ZM152.881 181H153.887V174.455H152.881V181ZM153.393 173.364C153.785 173.364 154.109 173.057 154.109 172.682C154.109 172.307 153.785 172 153.393 172C153.001 172 152.677 172.307 152.677 172.682C152.677 173.057 153.001 173.364 153.393 173.364ZM158.388 181.136C159.837 181.136 160.792 180.25 160.962 179.091H159.956C159.769 179.807 159.172 180.233 158.388 180.233C157.195 180.233 156.428 179.244 156.428 177.727C156.428 176.244 157.212 175.273 158.388 175.273C159.275 175.273 159.803 175.818 159.956 176.415H160.962C160.792 175.188 159.752 174.369 158.371 174.369C156.598 174.369 155.422 175.767 155.422 177.761C155.422 179.722 156.547 181.136 158.388 181.136ZM162.432 181H163.438V176.858C163.438 175.972 164.137 175.324 165.091 175.324C165.36 175.324 165.637 175.375 165.705 175.392V174.369C165.59 174.361 165.326 174.352 165.176 174.352C164.392 174.352 163.711 174.795 163.472 175.443H163.404V174.455H162.432V181ZM169.357 181.136C171.13 181.136 172.323 179.79 172.323 177.761C172.323 175.716 171.13 174.369 169.357 174.369C167.584 174.369 166.391 175.716 166.391 177.761C166.391 179.79 167.584 181.136 169.357 181.136ZM169.357 180.233C168.01 180.233 167.397 179.074 167.397 177.761C167.397 176.449 168.01 175.273 169.357 175.273C170.703 175.273 171.317 176.449 171.317 177.761C171.317 179.074 170.703 180.233 169.357 180.233ZM178.494 175.92C178.179 174.991 177.472 174.369 176.176 174.369C174.795 174.369 173.773 175.153 173.773 176.261C173.773 177.165 174.31 177.77 175.511 178.051L176.602 178.307C177.263 178.46 177.574 178.776 177.574 179.227C177.574 179.79 176.977 180.25 176.04 180.25C175.217 180.25 174.702 179.896 174.523 179.193L173.568 179.432C173.803 180.544 174.719 181.136 176.057 181.136C177.578 181.136 178.614 180.305 178.614 179.176C178.614 178.264 178.043 177.689 176.875 177.403L175.903 177.165C175.128 176.973 174.778 176.713 174.778 176.21C174.778 175.648 175.375 175.239 176.176 175.239C177.054 175.239 177.416 175.724 177.591 176.176L178.494 175.92ZM182.872 181.136C184.201 181.136 185.173 180.472 185.48 179.483L184.508 179.21C184.252 179.892 183.66 180.233 182.872 180.233C181.691 180.233 180.877 179.47 180.831 178.068H185.582V177.642C185.582 175.205 184.133 174.369 182.77 174.369C180.997 174.369 179.821 175.767 179.821 177.778C179.821 179.79 180.98 181.136 182.872 181.136ZM180.831 177.199C180.899 176.18 181.619 175.273 182.77 175.273C183.86 175.273 184.559 176.091 184.559 177.199H180.831ZM187.112 181H188.118V176.858C188.118 175.972 188.816 175.324 189.771 175.324C190.039 175.324 190.316 175.375 190.385 175.392V174.369C190.27 174.361 190.005 174.352 189.856 174.352C189.072 174.352 188.39 174.795 188.152 175.443H188.083V174.455H187.112V181ZM197.128 174.455H196.037L194.23 179.67H194.162L192.355 174.455H191.265L193.685 181H194.708L197.128 174.455ZM198.456 181H199.461V174.455H198.456V181ZM198.967 173.364C199.359 173.364 199.683 173.057 199.683 172.682C199.683 172.307 199.359 172 198.967 172C198.575 172 198.251 172.307 198.251 172.682C198.251 173.057 198.575 173.364 198.967 173.364ZM203.962 181.136C205.411 181.136 206.366 180.25 206.536 179.091H205.531C205.343 179.807 204.746 180.233 203.962 180.233C202.769 180.233 202.002 179.244 202.002 177.727C202.002 176.244 202.786 175.273 203.962 175.273C204.849 175.273 205.377 175.818 205.531 176.415H206.536C206.366 175.188 205.326 174.369 203.945 174.369C202.173 174.369 200.996 175.767 200.996 177.761C200.996 179.722 202.121 181.136 203.962 181.136ZM210.751 181.136C212.08 181.136 213.052 180.472 213.359 179.483L212.387 179.21C212.131 179.892 211.539 180.233 210.751 180.233C209.57 180.233 208.756 179.47 208.71 178.068H213.461V177.642C213.461 175.205 212.012 174.369 210.648 174.369C208.876 174.369 207.7 175.767 207.7 177.778C207.7 179.79 208.859 181.136 210.751 181.136ZM208.71 177.199C208.778 176.18 209.498 175.273 210.648 175.273C211.739 175.273 212.438 176.091 212.438 177.199H208.71ZM219.627 175.92C219.312 174.991 218.604 174.369 217.309 174.369C215.928 174.369 214.906 175.153 214.906 176.261C214.906 177.165 215.442 177.77 216.644 178.051L217.735 178.307C218.396 178.46 218.707 178.776 218.707 179.227C218.707 179.79 218.11 180.25 217.173 180.25C216.35 180.25 215.835 179.896 215.656 179.193L214.701 179.432C214.935 180.544 215.852 181.136 217.19 181.136C218.711 181.136 219.746 180.305 219.746 179.176C219.746 178.264 219.175 177.689 218.008 177.403L217.036 177.165C216.261 176.973 215.911 176.713 215.911 176.21C215.911 175.648 216.508 175.239 217.309 175.239C218.187 175.239 218.549 175.724 218.724 176.176L219.627 175.92ZM227.482 174.455H226.084V172.886H225.078V174.455H224.09V175.307H225.078V179.398C225.078 180.54 225.999 181.085 226.851 181.085C227.226 181.085 227.465 181.017 227.601 180.966L227.397 180.062C227.311 180.08 227.175 180.114 226.953 180.114C226.51 180.114 226.084 179.977 226.084 179.125V175.307H227.482V174.455ZM231.583 181.136C233.356 181.136 234.549 179.79 234.549 177.761C234.549 175.716 233.356 174.369 231.583 174.369C229.811 174.369 228.618 175.716 228.618 177.761C228.618 179.79 229.811 181.136 231.583 181.136ZM231.583 180.233C230.237 180.233 229.623 179.074 229.623 177.761C229.623 176.449 230.237 175.273 231.583 175.273C232.93 175.273 233.544 176.449 233.544 177.761C233.544 179.074 232.93 180.233 231.583 180.233ZM242.119 181.136C243.567 181.136 244.522 180.25 244.692 179.091H243.687C243.499 179.807 242.903 180.233 242.119 180.233C240.925 180.233 240.158 179.244 240.158 177.727C240.158 176.244 240.942 175.273 242.119 175.273C243.005 175.273 243.533 175.818 243.687 176.415H244.692C244.522 175.188 243.482 174.369 242.102 174.369C240.329 174.369 239.153 175.767 239.153 177.761C239.153 179.722 240.278 181.136 242.119 181.136ZM246.163 181H247.168V176.858C247.168 175.972 247.867 175.324 248.822 175.324C249.09 175.324 249.367 175.375 249.435 175.392V174.369C249.32 174.361 249.056 174.352 248.907 174.352C248.123 174.352 247.441 174.795 247.202 175.443H247.134V174.455H246.163V181ZM253.173 181.136C254.502 181.136 255.474 180.472 255.781 179.483L254.809 179.21C254.553 179.892 253.961 180.233 253.173 180.233C251.992 180.233 251.178 179.47 251.131 178.068H255.883V177.642C255.883 175.205 254.434 174.369 253.07 174.369C251.298 174.369 250.121 175.767 250.121 177.778C250.121 179.79 251.281 181.136 253.173 181.136ZM251.131 177.199C251.2 176.18 251.92 175.273 253.07 175.273C254.161 175.273 254.86 176.091 254.86 177.199H251.131ZM259.339 181.153C260.481 181.153 261.077 180.54 261.282 180.114H261.333V181H262.339V176.688C262.339 174.608 260.754 174.369 259.918 174.369C258.93 174.369 257.805 174.71 257.293 175.903L258.248 176.244C258.469 175.767 258.994 175.256 259.952 175.256C260.877 175.256 261.333 175.746 261.333 176.585V176.619C261.333 177.105 260.839 177.062 259.646 177.216C258.431 177.374 257.106 177.642 257.106 179.142C257.106 180.42 258.094 181.153 259.339 181.153ZM259.492 180.25C258.691 180.25 258.112 179.892 258.112 179.193C258.112 178.426 258.81 178.188 259.594 178.085C260.021 178.034 261.163 177.915 261.333 177.71V178.631C261.333 179.449 260.685 180.25 259.492 180.25ZM267.021 174.455H265.623V172.886H264.618V174.455H263.629V175.307H264.618V179.398C264.618 180.54 265.538 181.085 266.39 181.085C266.765 181.085 267.004 181.017 267.14 180.966L266.936 180.062C266.85 180.08 266.714 180.114 266.493 180.114C266.049 180.114 265.623 179.977 265.623 179.125V175.307H267.021V174.455ZM271.208 181.136C272.537 181.136 273.509 180.472 273.816 179.483L272.844 179.21C272.588 179.892 271.996 180.233 271.208 180.233C270.027 180.233 269.213 179.47 269.167 178.068H273.918V177.642C273.918 175.205 272.469 174.369 271.105 174.369C269.333 174.369 268.157 175.767 268.157 177.778C268.157 179.79 269.316 181.136 271.208 181.136ZM269.167 177.199C269.235 176.18 269.955 175.273 271.105 175.273C272.196 175.273 272.895 176.091 272.895 177.199H269.167ZM280.749 181.153C281.891 181.153 282.488 180.54 282.692 180.114H282.743V181H283.749V176.688C283.749 174.608 282.164 174.369 281.328 174.369C280.34 174.369 279.215 174.71 278.703 175.903L279.658 176.244C279.88 175.767 280.404 175.256 281.363 175.256C282.287 175.256 282.743 175.746 282.743 176.585V176.619C282.743 177.105 282.249 177.062 281.056 177.216C279.841 177.374 278.516 177.642 278.516 179.142C278.516 180.42 279.505 181.153 280.749 181.153ZM280.902 180.25C280.101 180.25 279.522 179.892 279.522 179.193C279.522 178.426 280.221 178.188 281.005 178.085C281.431 178.034 282.573 177.915 282.743 177.71V178.631C282.743 179.449 282.096 180.25 280.902 180.25ZM286.59 177.062C286.59 175.92 287.298 175.273 288.261 175.273C289.194 175.273 289.761 175.882 289.761 176.909V181H290.766V176.841C290.766 175.17 289.876 174.369 288.55 174.369C287.562 174.369 286.948 174.812 286.641 175.477H286.556V174.455H285.585V181H286.59V177.062ZM298.723 181.136C300.053 181.136 301.025 180.472 301.331 179.483L300.36 179.21C300.104 179.892 299.512 180.233 298.723 180.233C297.543 180.233 296.729 179.47 296.682 178.068H301.434V177.642C301.434 175.205 299.985 174.369 298.621 174.369C296.848 174.369 295.672 175.767 295.672 177.778C295.672 179.79 296.831 181.136 298.723 181.136ZM296.682 177.199C296.75 176.18 297.471 175.273 298.621 175.273C299.712 175.273 300.411 176.091 300.411 177.199H296.682ZM305.878 174.455H304.412V173.79C304.412 173.142 304.685 172.801 305.35 172.801C305.64 172.801 305.81 172.869 305.912 172.903L306.202 172.034C306.049 171.966 305.742 171.864 305.248 171.864C304.31 171.864 303.407 172.426 303.407 173.551V174.455H302.35V175.307H303.407V181H304.412V175.307H305.878V174.455ZM310.202 174.455H308.737V173.79C308.737 173.142 309.009 172.801 309.674 172.801C309.964 172.801 310.134 172.869 310.237 172.903L310.526 172.034C310.373 171.966 310.066 171.864 309.572 171.864C308.634 171.864 307.731 172.426 307.731 173.551V174.455H306.674V175.307H307.731V181H308.737V175.307H310.202V174.455ZM311.612 181H312.618V174.455H311.612V181ZM312.123 173.364C312.515 173.364 312.839 173.057 312.839 172.682C312.839 172.307 312.515 172 312.123 172C311.731 172 311.407 172.307 311.407 172.682C311.407 173.057 311.731 173.364 312.123 173.364ZM317.119 181.136C318.567 181.136 319.522 180.25 319.692 179.091H318.687C318.499 179.807 317.903 180.233 317.119 180.233C315.925 180.233 315.158 179.244 315.158 177.727C315.158 176.244 315.942 175.273 317.119 175.273C318.005 175.273 318.533 175.818 318.687 176.415H319.692C319.522 175.188 318.482 174.369 317.102 174.369C315.329 174.369 314.153 175.767 314.153 177.761C314.153 179.722 315.278 181.136 317.119 181.136ZM321.163 181H322.168V174.455H321.163V181ZM321.674 173.364C322.066 173.364 322.39 173.057 322.39 172.682C322.39 172.307 322.066 172 321.674 172C321.282 172 320.958 172.307 320.958 172.682C320.958 173.057 321.282 173.364 321.674 173.364ZM326.755 181.136C328.084 181.136 329.056 180.472 329.363 179.483L328.391 179.21C328.135 179.892 327.543 180.233 326.755 180.233C325.574 180.233 324.76 179.47 324.713 178.068H329.465V177.642C329.465 175.205 328.016 174.369 326.652 174.369C324.88 174.369 323.703 175.767 323.703 177.778C323.703 179.79 324.863 181.136 326.755 181.136ZM324.713 177.199C324.782 176.18 325.502 175.273 326.652 175.273C327.743 175.273 328.442 176.091 328.442 177.199H324.713ZM332 177.062C332 175.92 332.708 175.273 333.671 175.273C334.604 175.273 335.171 175.882 335.171 176.909V181H336.176V176.841C336.176 175.17 335.286 174.369 333.961 174.369C332.972 174.369 332.358 174.812 332.051 175.477H331.966V174.455H330.995V181H332V177.062ZM340.861 174.455H339.463V172.886H338.457V174.455H337.469V175.307H338.457V179.398C338.457 180.54 339.378 181.085 340.23 181.085C340.605 181.085 340.844 181.017 340.98 180.966L340.776 180.062C340.69 180.08 340.554 180.114 340.332 180.114C339.889 180.114 339.463 179.977 339.463 179.125V175.307H340.861V174.455ZM65.0568 197H66.0284V195.994H66.1477C66.3693 196.352 66.7955 197.136 68.0568 197.136C69.6932 197.136 70.8352 195.824 70.8352 193.744C70.8352 191.682 69.6932 190.369 68.0398 190.369C66.7614 190.369 66.3693 191.153 66.1477 191.494H66.0625V188.273H65.0568V197ZM66.0455 193.727C66.0455 192.261 66.6932 191.273 67.9205 191.273C69.1989 191.273 69.8295 192.347 69.8295 193.727C69.8295 195.125 69.1818 196.233 67.9205 196.233C66.7102 196.233 66.0455 195.21 66.0455 193.727ZM74.2997 197.153C75.4418 197.153 76.0384 196.54 76.2429 196.114H76.294V197H77.2997V192.688C77.2997 190.608 75.7145 190.369 74.8793 190.369C73.8906 190.369 72.7656 190.71 72.2543 191.903L73.2088 192.244C73.4304 191.767 73.9545 191.256 74.9134 191.256C75.8381 191.256 76.294 191.746 76.294 192.585V192.619C76.294 193.105 75.7997 193.062 74.6065 193.216C73.392 193.374 72.0668 193.642 72.0668 195.142C72.0668 196.42 73.0554 197.153 74.2997 197.153ZM74.4531 196.25C73.652 196.25 73.0724 195.892 73.0724 195.193C73.0724 194.426 73.7713 194.188 74.5554 194.085C74.9815 194.034 76.1236 193.915 76.294 193.71V194.631C76.294 195.449 75.6463 196.25 74.4531 196.25ZM81.7944 197.136C83.2433 197.136 84.1978 196.25 84.3683 195.091H83.3626C83.1751 195.807 82.5785 196.233 81.7944 196.233C80.6012 196.233 79.8342 195.244 79.8342 193.727C79.8342 192.244 80.6183 191.273 81.7944 191.273C82.6808 191.273 83.2092 191.818 83.3626 192.415H84.3683C84.1978 191.188 83.158 190.369 81.7773 190.369C80.0046 190.369 78.8285 191.767 78.8285 193.761C78.8285 195.722 79.9535 197.136 81.7944 197.136ZM85.8384 197H86.8441V194.55L87.5472 193.898L89.9975 197H91.2759L88.3058 193.25L91.0714 190.455H89.8271L86.9634 193.369H86.8441V188.273H85.8384V197ZM94.8406 197.136C96.1701 197.136 97.1417 196.472 97.4485 195.483L96.4769 195.21C96.2212 195.892 95.6289 196.233 94.8406 196.233C93.6602 196.233 92.8462 195.47 92.7994 194.068H97.5508V193.642C97.5508 191.205 96.1019 190.369 94.7383 190.369C92.9656 190.369 91.7894 191.767 91.7894 193.778C91.7894 195.79 92.9485 197.136 94.8406 197.136ZM92.7994 193.199C92.8675 192.18 93.5877 191.273 94.7383 191.273C95.8292 191.273 96.5281 192.091 96.5281 193.199H92.7994ZM100.086 193.062C100.086 191.92 100.794 191.273 101.757 191.273C102.69 191.273 103.257 191.882 103.257 192.909V197H104.262V192.841C104.262 191.17 103.372 190.369 102.047 190.369C101.058 190.369 100.444 190.812 100.137 191.477H100.052V190.455H99.0806V197H100.086V193.062ZM108.572 197.136C109.833 197.136 110.259 196.352 110.481 195.994H110.6V197H111.572V188.273H110.566V191.494H110.481C110.259 191.153 109.867 190.369 108.589 190.369C106.935 190.369 105.793 191.682 105.793 193.744C105.793 195.824 106.935 197.136 108.572 197.136ZM108.708 196.233C107.447 196.233 106.799 195.125 106.799 193.727C106.799 192.347 107.43 191.273 108.708 191.273C109.935 191.273 110.583 192.261 110.583 193.727C110.583 195.21 109.918 196.233 108.708 196.233ZM55 211.398C56.0355 211.398 56.875 210.558 56.875 209.523C56.875 208.487 56.0355 207.648 55 207.648C53.9645 207.648 53.125 208.487 53.125 209.523C53.125 210.558 53.9645 211.398 55 211.398ZM70.7841 204.273V209.966C70.7841 211.244 69.9062 212.165 68.4489 212.165C66.9915 212.165 66.1136 211.244 66.1136 209.966V204.273H65.0568V210.051C65.0568 211.841 66.3949 213.153 68.4489 213.153C70.5028 213.153 71.8409 211.841 71.8409 210.051V204.273H70.7841ZM78.4513 207.92C78.136 206.991 77.4286 206.369 76.1332 206.369C74.7525 206.369 73.7298 207.153 73.7298 208.261C73.7298 209.165 74.2667 209.77 75.4684 210.051L76.5593 210.307C77.2198 210.46 77.5309 210.776 77.5309 211.227C77.5309 211.79 76.9343 212.25 75.9968 212.25C75.1744 212.25 74.6587 211.896 74.4798 211.193L73.5252 211.432C73.7596 212.544 74.6758 213.136 76.0138 213.136C77.5352 213.136 78.5707 212.305 78.5707 211.176C78.5707 210.264 77.9996 209.689 76.832 209.403L75.8604 209.165C75.0849 208.973 74.7354 208.713 74.7354 208.21C74.7354 207.648 75.332 207.239 76.1332 207.239C77.011 207.239 77.3732 207.724 77.5479 208.176L78.4513 207.92ZM82.8288 213.136C84.1584 213.136 85.13 212.472 85.4368 211.483L84.4652 211.21C84.2095 211.892 83.6172 212.233 82.8288 212.233C81.6484 212.233 80.8345 211.47 80.7876 210.068H85.5391V209.642C85.5391 207.205 84.0902 206.369 82.7266 206.369C80.9538 206.369 79.7777 207.767 79.7777 209.778C79.7777 211.79 80.9368 213.136 82.8288 213.136ZM80.7876 209.199C80.8558 208.18 81.576 207.273 82.7266 207.273C83.8175 207.273 84.5163 208.091 84.5163 209.199H80.7876ZM89.5405 213.136C90.8018 213.136 91.228 212.352 91.4496 211.994H91.5689V213H92.5405V204.273H91.5348V207.494H91.4496C91.228 207.153 90.8359 206.369 89.5575 206.369C87.9041 206.369 86.7621 207.682 86.7621 209.744C86.7621 211.824 87.9041 213.136 89.5405 213.136ZM89.6768 212.233C88.4155 212.233 87.7678 211.125 87.7678 209.727C87.7678 208.347 88.3984 207.273 89.6768 207.273C90.9041 207.273 91.5518 208.261 91.5518 209.727C91.5518 211.21 90.8871 212.233 89.6768 212.233ZM103.999 207H105.09C104.766 205.312 103.352 204.153 101.511 204.153C99.2734 204.153 97.6925 205.875 97.6925 208.636C97.6925 211.398 99.2607 213.119 101.579 213.119C103.658 213.119 105.141 211.734 105.141 209.574V208.636H101.817V209.574H104.119C104.089 211.142 103.058 212.131 101.579 212.131C99.9595 212.131 98.7152 210.903 98.7152 208.636C98.7152 206.369 99.9595 205.142 101.511 205.142C102.772 205.142 103.629 205.854 103.999 207ZM109.474 213.136C111.247 213.136 112.44 211.79 112.44 209.761C112.44 207.716 111.247 206.369 109.474 206.369C107.701 206.369 106.508 207.716 106.508 209.761C106.508 211.79 107.701 213.136 109.474 213.136ZM109.474 212.233C108.127 212.233 107.514 211.074 107.514 209.761C107.514 208.449 108.127 207.273 109.474 207.273C110.821 207.273 111.434 208.449 111.434 209.761C111.434 211.074 110.821 212.233 109.474 212.233ZM115.475 211.807H114.384L114.333 212.284C114.21 213.439 113.967 214.589 113.856 215.131H114.623C114.827 214.551 115.262 213.239 115.407 212.267L115.475 211.807ZM127.77 204.273H126.73V211.142H126.645L121.873 204.273H120.85V213H121.907V206.148H121.992L126.748 213H127.77V204.273ZM132.408 213.136C134.18 213.136 135.374 211.79 135.374 209.761C135.374 207.716 134.18 206.369 132.408 206.369C130.635 206.369 129.442 207.716 129.442 209.761C129.442 211.79 130.635 213.136 132.408 213.136ZM132.408 212.233C131.061 212.233 130.447 211.074 130.447 209.761C130.447 208.449 131.061 207.273 132.408 207.273C133.754 207.273 134.368 208.449 134.368 209.761C134.368 211.074 133.754 212.233 132.408 212.233ZM139.38 213.136C140.642 213.136 141.068 212.352 141.289 211.994H141.409V213H142.38V204.273H141.375V207.494H141.289C141.068 207.153 140.676 206.369 139.397 206.369C137.744 206.369 136.602 207.682 136.602 209.744C136.602 211.824 137.744 213.136 139.38 213.136ZM139.517 212.233C138.255 212.233 137.608 211.125 137.608 209.727C137.608 208.347 138.238 207.273 139.517 207.273C140.744 207.273 141.392 208.261 141.392 209.727C141.392 211.21 140.727 212.233 139.517 212.233ZM147.106 213.136C148.436 213.136 149.407 212.472 149.714 211.483L148.743 211.21C148.487 211.892 147.895 212.233 147.106 212.233C145.926 212.233 145.112 211.47 145.065 210.068H149.816V209.642C149.816 207.205 148.368 206.369 147.004 206.369C145.231 206.369 144.055 207.767 144.055 209.778C144.055 211.79 145.214 213.136 147.106 213.136ZM145.065 209.199C145.133 208.18 145.853 207.273 147.004 207.273C148.095 207.273 148.794 208.091 148.794 209.199H145.065ZM152.079 213.068C152.501 213.068 152.846 212.723 152.846 212.301C152.846 211.879 152.501 211.534 152.079 211.534C151.657 211.534 151.312 211.879 151.312 212.301C151.312 212.723 151.657 213.068 152.079 213.068ZM154.651 206.455V213.477C154.651 214.142 154.378 214.517 153.765 214.517H153.577V215.455H153.782C155.043 215.455 155.657 214.688 155.657 213.477V206.455H154.651ZM155.145 205.364C155.537 205.364 155.861 205.057 155.861 204.682C155.861 204.307 155.537 204 155.145 204C154.753 204 154.429 204.307 154.429 204.682C154.429 205.057 154.753 205.364 155.145 205.364ZM162.135 207.92C161.82 206.991 161.112 206.369 159.817 206.369C158.436 206.369 157.413 207.153 157.413 208.261C157.413 209.165 157.95 209.77 159.152 210.051L160.243 210.307C160.903 210.46 161.214 210.776 161.214 211.227C161.214 211.79 160.618 212.25 159.68 212.25C158.858 212.25 158.342 211.896 158.163 211.193L157.209 211.432C157.443 212.544 158.359 213.136 159.697 213.136C161.219 213.136 162.254 212.305 162.254 211.176C162.254 210.264 161.683 209.689 160.516 209.403L159.544 209.165C158.768 208.973 158.419 208.713 158.419 208.21C158.419 207.648 159.016 207.239 159.817 207.239C160.695 207.239 161.057 207.724 161.232 208.176L162.135 207.92ZM165.268 211.807H164.177L164.126 212.284C164.002 213.439 163.76 214.589 163.649 215.131H164.416C164.62 214.551 165.055 213.239 165.2 212.267L165.268 211.807ZM170.643 213H175.756V212.062H171.7V204.273H170.643V213ZM179.183 213.153C180.325 213.153 180.921 212.54 181.126 212.114H181.177V213H182.183V208.688C182.183 206.608 180.597 206.369 179.762 206.369C178.773 206.369 177.648 206.71 177.137 207.903L178.092 208.244C178.313 207.767 178.837 207.256 179.796 207.256C180.721 207.256 181.177 207.746 181.177 208.585V208.619C181.177 209.105 180.683 209.062 179.489 209.216C178.275 209.374 176.95 209.642 176.95 211.142C176.95 212.42 177.938 213.153 179.183 213.153ZM179.336 212.25C178.535 212.25 177.955 211.892 177.955 211.193C177.955 210.426 178.654 210.188 179.438 210.085C179.864 210.034 181.006 209.915 181.177 209.71V210.631C181.177 211.449 180.529 212.25 179.336 212.25ZM184.018 213H185.024V208.858C185.024 207.972 185.723 207.324 186.677 207.324C186.946 207.324 187.223 207.375 187.291 207.392V206.369C187.176 206.361 186.912 206.352 186.762 206.352C185.978 206.352 185.297 206.795 185.058 207.443H184.99V206.455H184.018V213ZM190.409 213.153C191.551 213.153 192.148 212.54 192.352 212.114H192.403V213H193.409V208.688C193.409 206.608 191.824 206.369 190.989 206.369C190 206.369 188.875 206.71 188.364 207.903L189.318 208.244C189.54 207.767 190.064 207.256 191.023 207.256C191.947 207.256 192.403 207.746 192.403 208.585V208.619C192.403 209.105 191.909 209.062 190.716 209.216C189.501 209.374 188.176 209.642 188.176 211.142C188.176 212.42 189.165 213.153 190.409 213.153ZM190.562 212.25C189.761 212.25 189.182 211.892 189.182 211.193C189.182 210.426 189.881 210.188 190.665 210.085C191.091 210.034 192.233 209.915 192.403 209.71V210.631C192.403 211.449 191.756 212.25 190.562 212.25ZM200.363 206.455H199.272L197.465 211.67H197.397L195.59 206.455H194.499L196.919 213H197.942L200.363 206.455ZM204.2 213.136C205.529 213.136 206.501 212.472 206.808 211.483L205.836 211.21C205.581 211.892 204.988 212.233 204.2 212.233C203.02 212.233 202.206 211.47 202.159 210.068H206.91V209.642C206.91 207.205 205.461 206.369 204.098 206.369C202.325 206.369 201.149 207.767 201.149 209.778C201.149 211.79 202.308 213.136 204.2 213.136ZM202.159 209.199C202.227 208.18 202.947 207.273 204.098 207.273C205.189 207.273 205.887 208.091 205.887 209.199H202.159ZM209.446 204.273H208.44V213H209.446V204.273ZM212.788 211.807H211.697L211.646 212.284C211.522 213.439 211.279 214.589 211.168 215.131H211.935C212.14 214.551 212.575 213.239 212.719 212.267L212.788 211.807ZM218.162 213H219.219V210.17L220.31 208.943L223.344 213H224.623L220.958 208.21L224.623 204.273H223.242L219.321 208.602H219.219V204.273H218.162V213ZM227.78 213.153C228.922 213.153 229.519 212.54 229.723 212.114H229.775V213H230.78V208.688C230.78 206.608 229.195 206.369 228.36 206.369C227.371 206.369 226.246 206.71 225.735 207.903L226.689 208.244C226.911 207.767 227.435 207.256 228.394 207.256C229.319 207.256 229.775 207.746 229.775 208.585V208.619C229.775 209.105 229.28 209.062 228.087 209.216C226.873 209.374 225.547 209.642 225.547 211.142C225.547 212.42 226.536 213.153 227.78 213.153ZM227.934 212.25C227.132 212.25 226.553 211.892 226.553 211.193C226.553 210.426 227.252 210.188 228.036 210.085C228.462 210.034 229.604 209.915 229.775 209.71V210.631C229.775 211.449 229.127 212.25 227.934 212.25ZM235.531 206.455H234.065V205.79C234.065 205.142 234.337 204.801 235.002 204.801C235.292 204.801 235.462 204.869 235.565 204.903L235.854 204.034C235.701 203.966 235.394 203.864 234.9 203.864C233.962 203.864 233.059 204.426 233.059 205.551V206.455H232.002V207.307H233.059V213H234.065V207.307H235.531V206.455ZM236.94 213H237.946V210.55L238.649 209.898L241.099 213H242.377L239.407 209.25L242.173 206.455H240.929L238.065 209.369H237.946V204.273H236.94V213ZM245.393 213.153C246.536 213.153 247.132 212.54 247.337 212.114H247.388V213H248.393V208.688C248.393 206.608 246.808 206.369 245.973 206.369C244.984 206.369 243.859 206.71 243.348 207.903L244.303 208.244C244.524 207.767 245.048 207.256 246.007 207.256C246.932 207.256 247.388 207.746 247.388 208.585V208.619C247.388 209.105 246.893 209.062 245.7 209.216C244.486 209.374 243.161 209.642 243.161 211.142C243.161 212.42 244.149 213.153 245.393 213.153ZM245.547 212.25C244.746 212.25 244.166 211.892 244.166 211.193C244.166 210.426 244.865 210.188 245.649 210.085C246.075 210.034 247.217 209.915 247.388 209.71V210.631C247.388 211.449 246.74 212.25 245.547 212.25ZM251.729 211.807H250.638L250.587 212.284C250.463 213.439 250.221 214.589 250.11 215.131H250.877C251.081 214.551 251.516 213.239 251.661 212.267L251.729 211.807ZM257.104 204.273V213H258.092V206.369H258.178L260.905 213H261.859L264.587 206.369H264.672V213H265.661V204.273H264.399L261.433 211.517H261.331L258.365 204.273H257.104ZM270.302 213.136C272.075 213.136 273.268 211.79 273.268 209.761C273.268 207.716 272.075 206.369 270.302 206.369C268.529 206.369 267.336 207.716 267.336 209.761C267.336 211.79 268.529 213.136 270.302 213.136ZM270.302 212.233C268.956 212.233 268.342 211.074 268.342 209.761C268.342 208.449 268.956 207.273 270.302 207.273C271.649 207.273 272.262 208.449 272.262 209.761C272.262 211.074 271.649 212.233 270.302 212.233ZM275.809 209.062C275.809 207.92 276.516 207.273 277.479 207.273C278.413 207.273 278.979 207.882 278.979 208.909V213H279.985V208.841C279.985 207.17 279.094 206.369 277.769 206.369C276.781 206.369 276.167 206.812 275.86 207.477H275.775V206.455H274.803V213H275.809V209.062ZM284.465 215.591C286.033 215.591 287.294 214.875 287.294 213.188V206.455H286.323V207.494H286.221C285.999 207.153 285.59 206.369 284.311 206.369C282.658 206.369 281.516 207.682 281.516 209.693C281.516 211.739 282.709 212.898 284.294 212.898C285.573 212.898 285.982 212.148 286.203 211.79H286.289V213.119C286.289 214.21 285.522 214.705 284.465 214.705C283.276 214.705 282.858 214.078 282.59 213.716L281.789 214.278C282.198 214.964 283.003 215.591 284.465 215.591ZM284.431 211.994C283.169 211.994 282.522 211.04 282.522 209.676C282.522 208.347 283.152 207.273 284.431 207.273C285.658 207.273 286.306 208.261 286.306 209.676C286.306 211.125 285.641 211.994 284.431 211.994ZM291.794 213.136C293.567 213.136 294.76 211.79 294.76 209.761C294.76 207.716 293.567 206.369 291.794 206.369C290.022 206.369 288.828 207.716 288.828 209.761C288.828 211.79 290.022 213.136 291.794 213.136ZM291.794 212.233C290.448 212.233 289.834 211.074 289.834 209.761C289.834 208.449 290.448 207.273 291.794 207.273C293.141 207.273 293.755 208.449 293.755 209.761C293.755 211.074 293.141 212.233 291.794 212.233ZM299.125 213C301.784 213 303.284 211.347 303.284 208.619C303.284 205.909 301.784 204.273 299.244 204.273H296.432V213H299.125ZM297.489 212.062V205.21H299.176C301.222 205.21 302.261 206.506 302.261 208.619C302.261 210.75 301.222 212.062 299.057 212.062H297.489ZM305.057 213H308.21C310.273 213 311.125 211.994 311.125 210.682C311.125 209.301 310.17 208.551 309.369 208.5V208.415C310.119 208.21 310.784 207.716 310.784 206.591C310.784 205.312 309.932 204.273 308.108 204.273H305.057V213ZM306.114 212.062V209.028H308.261C309.403 209.028 310.119 209.795 310.119 210.682C310.119 211.449 309.591 212.062 308.21 212.062H306.114ZM306.114 208.108V205.21H308.108C309.267 205.21 309.778 205.824 309.778 206.591C309.778 207.511 309.028 208.108 308.074 208.108H306.114ZM55 227.398C56.0355 227.398 56.875 226.558 56.875 225.523C56.875 224.487 56.0355 223.648 55 223.648C53.9645 223.648 53.125 224.487 53.125 225.523C53.125 226.558 53.9645 227.398 55 227.398ZM66.642 229H67.733L69.6591 222.045H69.7273L71.6534 229H72.7443L75.1307 220.273H74.0568L72.233 227.381H72.1477L70.2898 220.273H69.0966L67.2386 227.381H67.1534L65.3295 220.273H64.2557L66.642 229ZM78.3608 229.136C80.1335 229.136 81.3267 227.79 81.3267 225.761C81.3267 223.716 80.1335 222.369 78.3608 222.369C76.5881 222.369 75.3949 223.716 75.3949 225.761C75.3949 227.79 76.5881 229.136 78.3608 229.136ZM78.3608 228.233C77.0142 228.233 76.4006 227.074 76.4006 225.761C76.4006 224.449 77.0142 223.273 78.3608 223.273C79.7074 223.273 80.321 224.449 80.321 225.761C80.321 227.074 79.7074 228.233 78.3608 228.233ZM82.8619 229H83.8675V224.858C83.8675 223.972 84.5664 223.324 85.521 223.324C85.7894 223.324 86.0664 223.375 86.1346 223.392V222.369C86.0195 222.361 85.7553 222.352 85.6062 222.352C84.8221 222.352 84.1403 222.795 83.9016 223.443H83.8335V222.455H82.8619V229ZM87.3267 229H88.3324V226.55L89.0355 225.898L91.4858 229H92.7642L89.794 225.25L92.5597 222.455H91.3153L88.4517 225.369H88.3324V220.273H87.3267V229ZM99.8881 229.136C101.337 229.136 102.292 228.25 102.462 227.091H101.456C101.269 227.807 100.672 228.233 99.8881 228.233C98.695 228.233 97.9279 227.244 97.9279 225.727C97.9279 224.244 98.712 223.273 99.8881 223.273C100.775 223.273 101.303 223.818 101.456 224.415H102.462C102.292 223.188 101.252 222.369 99.8711 222.369C98.0984 222.369 96.9222 223.767 96.9222 225.761C96.9222 227.722 98.0472 229.136 99.8881 229.136ZM104.938 220.273H103.932V229H104.938V220.273ZM109.439 229.136C111.212 229.136 112.405 227.79 112.405 225.761C112.405 223.716 111.212 222.369 109.439 222.369C107.666 222.369 106.473 223.716 106.473 225.761C106.473 227.79 107.666 229.136 109.439 229.136ZM109.439 228.233C108.092 228.233 107.479 227.074 107.479 225.761C107.479 224.449 108.092 223.273 109.439 223.273C110.786 223.273 111.399 224.449 111.399 225.761C111.399 227.074 110.786 228.233 109.439 228.233ZM118.576 223.92C118.261 222.991 117.554 222.369 116.258 222.369C114.877 222.369 113.855 223.153 113.855 224.261C113.855 225.165 114.392 225.77 115.593 226.051L116.684 226.307C117.345 226.46 117.656 226.776 117.656 227.227C117.656 227.79 117.059 228.25 116.122 228.25C115.299 228.25 114.784 227.896 114.605 227.193L113.65 227.432C113.885 228.544 114.801 229.136 116.139 229.136C117.66 229.136 118.696 228.305 118.696 227.176C118.696 226.264 118.125 225.689 116.957 225.403L115.985 225.165C115.21 224.973 114.86 224.713 114.86 224.21C114.86 223.648 115.457 223.239 116.258 223.239C117.136 223.239 117.498 223.724 117.673 224.176L118.576 223.92ZM122.954 229.136C124.283 229.136 125.255 228.472 125.562 227.483L124.59 227.21C124.335 227.892 123.742 228.233 122.954 228.233C121.773 228.233 120.96 227.47 120.913 226.068H125.664V225.642C125.664 223.205 124.215 222.369 122.852 222.369C121.079 222.369 119.903 223.767 119.903 225.778C119.903 227.79 121.062 229.136 122.954 229.136ZM120.913 225.199C120.981 224.18 121.701 223.273 122.852 223.273C123.942 223.273 124.641 224.091 124.641 225.199H120.913ZM128.2 220.273H127.194V229H128.2V220.273ZM130.689 231.455C131.597 231.455 132.236 230.973 132.615 229.955L135.402 222.472L134.303 222.455L132.496 227.67H132.428L130.621 222.455H129.53L131.951 229.034L131.763 229.545C131.397 230.543 130.945 230.636 130.212 230.449L129.956 231.335C130.059 231.386 130.348 231.455 130.689 231.455ZM141.591 229H142.58L144.011 223.972H144.114L145.545 229H146.534L148.528 222.455H147.472L146.057 227.449H145.989L144.608 222.455H143.534L142.136 227.466H142.068L140.653 222.455H139.597L141.591 229ZM149.858 229H150.864V222.455H149.858V229ZM150.369 221.364C150.761 221.364 151.085 221.057 151.085 220.682C151.085 220.307 150.761 220 150.369 220C149.977 220 149.653 220.307 149.653 220.682C149.653 221.057 149.977 221.364 150.369 221.364ZM155.552 222.455H154.154V220.886H153.149V222.455H152.16V223.307H153.149V227.398C153.149 228.54 154.069 229.085 154.922 229.085C155.297 229.085 155.535 229.017 155.672 228.966L155.467 228.062C155.382 228.08 155.245 228.114 155.024 228.114C154.581 228.114 154.154 227.977 154.154 227.125V223.307H155.552V222.455ZM158.211 225.062C158.211 223.92 158.94 223.273 159.933 223.273C160.879 223.273 161.45 223.869 161.45 224.909V229H162.456V224.841C162.456 223.158 161.561 222.369 160.223 222.369C159.191 222.369 158.603 222.8 158.297 223.477H158.211V220.273H157.206V229H158.211V225.062ZM168.165 229L169.043 226.528H172.571L173.449 229H174.557L171.352 220.273H170.261L167.057 229H168.165ZM169.375 225.591L170.773 221.653H170.841L172.239 225.591H169.375ZM176.973 220.273H175.916V229H176.973V220.273ZM182.467 229H187.802V228.062H183.524V225.097H187.461V224.159H183.524V221.21H187.734V220.273H182.467V229ZM190.508 225.062C190.508 223.92 191.216 223.273 192.179 223.273C193.112 223.273 193.679 223.882 193.679 224.909V229H194.684V224.841C194.684 223.17 193.794 222.369 192.468 222.369C191.48 222.369 190.866 222.812 190.559 223.477H190.474V222.455H189.502V229H190.508V225.062ZM199.164 231.591C200.732 231.591 201.994 230.875 201.994 229.188V222.455H201.022V223.494H200.92C200.698 223.153 200.289 222.369 199.011 222.369C197.357 222.369 196.215 223.682 196.215 225.693C196.215 227.739 197.408 228.898 198.994 228.898C200.272 228.898 200.681 228.148 200.903 227.79H200.988V229.119C200.988 230.21 200.221 230.705 199.164 230.705C197.975 230.705 197.558 230.078 197.289 229.716L196.488 230.278C196.897 230.964 197.702 231.591 199.164 231.591ZM199.13 227.994C197.869 227.994 197.221 227.04 197.221 225.676C197.221 224.347 197.852 223.273 199.13 223.273C200.357 223.273 201.005 224.261 201.005 225.676C201.005 227.125 200.34 227.994 199.13 227.994ZM203.835 229H204.84V222.455H203.835V229ZM204.346 221.364C204.738 221.364 205.062 221.057 205.062 220.682C205.062 220.307 204.738 220 204.346 220C203.954 220 203.63 220.307 203.63 220.682C203.63 221.057 203.954 221.364 204.346 221.364ZM207.688 225.062C207.688 223.92 208.395 223.273 209.358 223.273C210.292 223.273 210.858 223.882 210.858 224.909V229H211.864V224.841C211.864 223.17 210.973 222.369 209.648 222.369C208.659 222.369 208.046 222.812 207.739 223.477H207.654V222.455H206.682V229H207.688V225.062ZM216.446 229.136C217.776 229.136 218.747 228.472 219.054 227.483L218.082 227.21C217.827 227.892 217.234 228.233 216.446 228.233C215.266 228.233 214.452 227.47 214.405 226.068H219.156V225.642C219.156 223.205 217.707 222.369 216.344 222.369C214.571 222.369 213.395 223.767 213.395 225.778C213.395 227.79 214.554 229.136 216.446 229.136ZM214.405 225.199C214.473 224.18 215.193 223.273 216.344 223.273C217.435 223.273 218.134 224.091 218.134 225.199H214.405ZM223.43 229.136C224.76 229.136 225.732 228.472 226.038 227.483L225.067 227.21C224.811 227.892 224.219 228.233 223.43 228.233C222.25 228.233 221.436 227.47 221.389 226.068H226.141V225.642C226.141 223.205 224.692 222.369 223.328 222.369C221.555 222.369 220.379 223.767 220.379 225.778C220.379 227.79 221.538 229.136 223.43 229.136ZM221.389 225.199C221.457 224.18 222.178 223.273 223.328 223.273C224.419 223.273 225.118 224.091 225.118 225.199H221.389ZM227.67 229H228.676V224.858C228.676 223.972 229.375 223.324 230.33 223.324C230.598 223.324 230.875 223.375 230.943 223.392V222.369C230.828 222.361 230.564 222.352 230.415 222.352C229.631 222.352 228.949 222.795 228.71 223.443H228.642V222.455H227.67V229ZM233.635 227.807H232.544L232.493 228.284C232.37 229.439 232.127 230.589 232.016 231.131H232.783C232.988 230.551 233.422 229.239 233.567 228.267L233.635 227.807ZM244.976 223H246.067C245.743 221.312 244.328 220.153 242.487 220.153C240.25 220.153 238.669 221.875 238.669 224.636C238.669 227.398 240.237 229.119 242.555 229.119C244.635 229.119 246.118 227.734 246.118 225.574V224.636H242.794V225.574H245.095C245.065 227.142 244.034 228.131 242.555 228.131C240.936 228.131 239.692 226.903 239.692 224.636C239.692 222.369 240.936 221.142 242.487 221.142C243.749 221.142 244.605 221.854 244.976 223ZM247.792 229H248.797V224.858C248.797 223.972 249.496 223.324 250.451 223.324C250.719 223.324 250.996 223.375 251.064 223.392V222.369C250.949 222.361 250.685 222.352 250.536 222.352C249.752 222.352 249.07 222.795 248.831 223.443H248.763V222.455H247.792V229ZM254.183 229.153C255.325 229.153 255.921 228.54 256.126 228.114H256.177V229H257.183V224.688C257.183 222.608 255.597 222.369 254.762 222.369C253.773 222.369 252.648 222.71 252.137 223.903L253.092 224.244C253.313 223.767 253.837 223.256 254.796 223.256C255.721 223.256 256.177 223.746 256.177 224.585V224.619C256.177 225.105 255.683 225.062 254.489 225.216C253.275 225.374 251.95 225.642 251.95 227.142C251.95 228.42 252.938 229.153 254.183 229.153ZM254.336 228.25C253.535 228.25 252.955 227.892 252.955 227.193C252.955 226.426 253.654 226.188 254.438 226.085C254.864 226.034 256.006 225.915 256.177 225.71V226.631C256.177 227.449 255.529 228.25 254.336 228.25ZM259.018 231.455H260.024V227.994H260.109C260.331 228.352 260.757 229.136 262.018 229.136C263.654 229.136 264.797 227.824 264.797 225.744C264.797 223.682 263.654 222.369 262.001 222.369C260.723 222.369 260.331 223.153 260.109 223.494H259.99V222.455H259.018V231.455ZM260.007 225.727C260.007 224.261 260.654 223.273 261.882 223.273C263.16 223.273 263.791 224.347 263.791 225.727C263.791 227.125 263.143 228.233 261.882 228.233C260.672 228.233 260.007 227.21 260.007 225.727ZM267.336 225.062C267.336 223.92 268.065 223.273 269.058 223.273C270.004 223.273 270.575 223.869 270.575 224.909V229H271.581V224.841C271.581 223.158 270.686 222.369 269.348 222.369C268.316 222.369 267.728 222.8 267.422 223.477H267.336V220.273H266.331V229H267.336V225.062ZM273.42 229H274.426V222.455H273.42V229ZM273.932 221.364C274.324 221.364 274.648 221.057 274.648 220.682C274.648 220.307 274.324 220 273.932 220C273.54 220 273.216 220.307 273.216 220.682C273.216 221.057 273.54 221.364 273.932 221.364ZM278.927 229.136C280.376 229.136 281.331 228.25 281.501 227.091H280.495C280.308 227.807 279.711 228.233 278.927 228.233C277.734 228.233 276.967 227.244 276.967 225.727C276.967 224.244 277.751 223.273 278.927 223.273C279.814 223.273 280.342 223.818 280.495 224.415H281.501C281.331 223.188 280.291 222.369 278.91 222.369C277.137 222.369 275.961 223.767 275.961 225.761C275.961 227.722 277.086 229.136 278.927 229.136ZM289.176 229C291.835 229 293.335 227.347 293.335 224.619C293.335 221.909 291.835 220.273 289.295 220.273H286.483V229H289.176ZM287.539 228.062V221.21H289.227C291.272 221.21 292.312 222.506 292.312 224.619C292.312 226.75 291.272 228.062 289.108 228.062H287.539ZM297.716 229.136C299.045 229.136 300.017 228.472 300.324 227.483L299.352 227.21C299.096 227.892 298.504 228.233 297.716 228.233C296.535 228.233 295.721 227.47 295.674 226.068H300.426V225.642C300.426 223.205 298.977 222.369 297.613 222.369C295.841 222.369 294.664 223.767 294.664 225.778C294.664 227.79 295.824 229.136 297.716 229.136ZM295.674 225.199C295.743 224.18 296.463 223.273 297.613 223.273C298.704 223.273 299.403 224.091 299.403 225.199H295.674ZM306.592 223.92C306.277 222.991 305.569 222.369 304.274 222.369C302.893 222.369 301.87 223.153 301.87 224.261C301.87 225.165 302.407 225.77 303.609 226.051L304.7 226.307C305.36 226.46 305.672 226.776 305.672 227.227C305.672 227.79 305.075 228.25 304.137 228.25C303.315 228.25 302.799 227.896 302.62 227.193L301.666 227.432C301.9 228.544 302.816 229.136 304.154 229.136C305.676 229.136 306.711 228.305 306.711 227.176C306.711 226.264 306.14 225.689 304.973 225.403L304.001 225.165C303.225 224.973 302.876 224.713 302.876 224.21C302.876 223.648 303.473 223.239 304.274 223.239C305.152 223.239 305.514 223.724 305.689 224.176L306.592 223.92ZM308.225 229H309.231V222.455H308.225V229ZM308.737 221.364C309.129 221.364 309.452 221.057 309.452 220.682C309.452 220.307 309.129 220 308.737 220C308.344 220 308.021 220.307 308.021 220.682C308.021 221.057 308.344 221.364 308.737 221.364ZM313.715 231.591C315.283 231.591 316.544 230.875 316.544 229.188V222.455H315.573V223.494H315.471C315.249 223.153 314.84 222.369 313.561 222.369C311.908 222.369 310.766 223.682 310.766 225.693C310.766 227.739 311.959 228.898 313.544 228.898C314.823 228.898 315.232 228.148 315.453 227.79H315.539V229.119C315.539 230.21 314.772 230.705 313.715 230.705C312.526 230.705 312.108 230.078 311.84 229.716L311.039 230.278C311.448 230.964 312.253 231.591 313.715 231.591ZM313.681 227.994C312.419 227.994 311.772 227.04 311.772 225.676C311.772 224.347 312.402 223.273 313.681 223.273C314.908 223.273 315.556 224.261 315.556 225.676C315.556 227.125 314.891 227.994 313.681 227.994ZM319.391 225.062C319.391 223.92 320.098 223.273 321.061 223.273C321.995 223.273 322.561 223.882 322.561 224.909V229H323.567V224.841C323.567 223.17 322.676 222.369 321.351 222.369C320.363 222.369 319.749 222.812 319.442 223.477H319.357V222.455H318.385V229H319.391V225.062ZM328.149 229.136C329.479 229.136 330.45 228.472 330.757 227.483L329.786 227.21C329.53 227.892 328.938 228.233 328.149 228.233C326.969 228.233 326.155 227.47 326.108 226.068H330.859V225.642C330.859 223.205 329.411 222.369 328.047 222.369C326.274 222.369 325.098 223.767 325.098 225.778C325.098 227.79 326.257 229.136 328.149 229.136ZM326.108 225.199C326.176 224.18 326.896 223.273 328.047 223.273C329.138 223.273 329.837 224.091 329.837 225.199H326.108ZM332.389 229H333.395V224.858C333.395 223.972 334.094 223.324 335.048 223.324C335.317 223.324 335.594 223.375 335.662 223.392V222.369C335.547 222.361 335.283 222.352 335.134 222.352C334.349 222.352 333.668 222.795 333.429 223.443H333.361V222.455H332.389V229ZM338.354 227.807H337.263L337.212 228.284C337.088 229.439 336.846 230.589 336.735 231.131H337.502C337.706 230.551 338.141 229.239 338.286 228.267L338.354 227.807ZM65.0568 245H66.1136V241.097H69.8977V240.159H66.1136V237.21H70.2898V236.273H65.0568V245ZM71.8931 245H72.8988V240.858C72.8988 239.972 73.5977 239.324 74.5522 239.324C74.8207 239.324 75.0977 239.375 75.1658 239.392V238.369C75.0508 238.361 74.7866 238.352 74.6374 238.352C73.8533 238.352 73.1715 238.795 72.9329 239.443H72.8647V238.455H71.8931V245ZM78.8178 245.136C80.5906 245.136 81.7837 243.79 81.7837 241.761C81.7837 239.716 80.5906 238.369 78.8178 238.369C77.0451 238.369 75.8519 239.716 75.8519 241.761C75.8519 243.79 77.0451 245.136 78.8178 245.136ZM78.8178 244.233C77.4712 244.233 76.8576 243.074 76.8576 241.761C76.8576 240.449 77.4712 239.273 78.8178 239.273C80.1644 239.273 80.7781 240.449 80.7781 241.761C80.7781 243.074 80.1644 244.233 78.8178 244.233ZM84.3246 241.062C84.3246 239.92 85.032 239.273 85.995 239.273C86.9283 239.273 87.495 239.882 87.495 240.909V245H88.5007V240.841C88.5007 239.17 87.6101 238.369 86.2848 238.369C85.2962 238.369 84.6825 238.812 84.3757 239.477H84.2905V238.455H83.3189V245H84.3246V241.062ZM93.185 238.455H91.7873V236.886H90.7816V238.455H89.793V239.307H90.7816V243.398C90.7816 244.54 91.7021 245.085 92.5543 245.085C92.9293 245.085 93.168 245.017 93.3043 244.966L93.0998 244.062C93.0146 244.08 92.8782 244.114 92.6566 244.114C92.2134 244.114 91.7873 243.977 91.7873 243.125V239.307H93.185V238.455ZM97.3718 245.136C98.7013 245.136 99.6729 244.472 99.9798 243.483L99.0082 243.21C98.7525 243.892 98.1602 244.233 97.3718 244.233C96.1914 244.233 95.3775 243.47 95.3306 242.068H100.082V241.642C100.082 239.205 98.6332 238.369 97.2695 238.369C95.4968 238.369 94.3207 239.767 94.3207 241.778C94.3207 243.79 95.4798 245.136 97.3718 245.136ZM95.3306 241.199C95.3988 240.18 96.119 239.273 97.2695 239.273C98.3604 239.273 99.0593 240.091 99.0593 241.199H95.3306ZM102.618 241.062C102.618 239.92 103.325 239.273 104.288 239.273C105.221 239.273 105.788 239.882 105.788 240.909V245H106.794V240.841C106.794 239.17 105.903 238.369 104.578 238.369C103.589 238.369 102.975 238.812 102.669 239.477H102.583V238.455H101.612V245H102.618V241.062ZM111.103 245.136C112.364 245.136 112.79 244.352 113.012 243.994H113.131V245H114.103V236.273H113.097V239.494H113.012C112.79 239.153 112.398 238.369 111.12 238.369C109.467 238.369 108.325 239.682 108.325 241.744C108.325 243.824 109.467 245.136 111.103 245.136ZM111.239 244.233C109.978 244.233 109.33 243.125 109.33 241.727C109.33 240.347 109.961 239.273 111.239 239.273C112.467 239.273 113.114 240.261 113.114 241.727C113.114 243.21 112.45 244.233 111.239 244.233ZM119.596 245H124.931V244.062H120.653V241.097H124.59V240.159H120.653V237.21H124.863V236.273H119.596V245ZM127.637 241.062C127.637 239.92 128.344 239.273 129.308 239.273C130.241 239.273 130.808 239.882 130.808 240.909V245H131.813V240.841C131.813 239.17 130.923 238.369 129.597 238.369C128.609 238.369 127.995 238.812 127.688 239.477H127.603V238.455H126.631V245H127.637V241.062ZM136.293 247.591C137.861 247.591 139.123 246.875 139.123 245.188V238.455H138.151V239.494H138.049C137.827 239.153 137.418 238.369 136.14 238.369C134.486 238.369 133.344 239.682 133.344 241.693C133.344 243.739 134.537 244.898 136.123 244.898C137.401 244.898 137.81 244.148 138.032 243.79H138.117V245.119C138.117 246.21 137.35 246.705 136.293 246.705C135.104 246.705 134.686 246.078 134.418 245.716L133.617 246.278C134.026 246.964 134.831 247.591 136.293 247.591ZM136.259 243.994C134.998 243.994 134.35 243.04 134.35 241.676C134.35 240.347 134.98 239.273 136.259 239.273C137.486 239.273 138.134 240.261 138.134 241.676C138.134 243.125 137.469 243.994 136.259 243.994ZM140.963 245H141.969V238.455H140.963V245ZM141.475 237.364C141.867 237.364 142.191 237.057 142.191 236.682C142.191 236.307 141.867 236 141.475 236C141.083 236 140.759 236.307 140.759 236.682C140.759 237.057 141.083 237.364 141.475 237.364ZM144.817 241.062C144.817 239.92 145.524 239.273 146.487 239.273C147.42 239.273 147.987 239.882 147.987 240.909V245H148.993V240.841C148.993 239.17 148.102 238.369 146.777 238.369C145.788 238.369 145.175 238.812 144.868 239.477H144.783V238.455H143.811V245H144.817V241.062ZM153.575 245.136C154.904 245.136 155.876 244.472 156.183 243.483L155.211 243.21C154.956 243.892 154.363 244.233 153.575 244.233C152.395 244.233 151.581 243.47 151.534 242.068H156.285V241.642C156.285 239.205 154.836 238.369 153.473 238.369C151.7 238.369 150.524 239.767 150.524 241.778C150.524 243.79 151.683 245.136 153.575 245.136ZM151.534 241.199C151.602 240.18 152.322 239.273 153.473 239.273C154.564 239.273 155.262 240.091 155.262 241.199H151.534ZM160.559 245.136C161.889 245.136 162.86 244.472 163.167 243.483L162.196 243.21C161.94 243.892 161.348 244.233 160.559 244.233C159.379 244.233 158.565 243.47 158.518 242.068H163.27V241.642C163.27 239.205 161.821 238.369 160.457 238.369C158.684 238.369 157.508 239.767 157.508 241.778C157.508 243.79 158.667 245.136 160.559 245.136ZM158.518 241.199C158.586 240.18 159.306 239.273 160.457 239.273C161.548 239.273 162.247 240.091 162.247 241.199H158.518ZM164.799 245H165.805V240.858C165.805 239.972 166.504 239.324 167.458 239.324C167.727 239.324 168.004 239.375 168.072 239.392V238.369C167.957 238.361 167.693 238.352 167.544 238.352C166.76 238.352 166.078 238.795 165.839 239.443H165.771V238.455H164.799V245ZM170.764 243.807H169.673L169.622 244.284C169.499 245.439 169.256 246.589 169.145 247.131H169.912C170.116 246.551 170.551 245.239 170.696 244.267L170.764 243.807ZM176.497 245L177.375 242.528H180.903L181.781 245H182.889L179.684 236.273H178.593L175.389 245H176.497ZM177.707 241.591L179.105 237.653H179.173L180.571 241.591H177.707ZM185.118 241.062C185.118 239.92 185.825 239.273 186.788 239.273C187.721 239.273 188.288 239.882 188.288 240.909V245H189.294V240.841C189.294 239.17 188.403 238.369 187.078 238.369C186.089 238.369 185.475 238.812 185.169 239.477H185.083V238.455H184.112V245H185.118V241.062ZM193.603 245.136C194.864 245.136 195.29 244.352 195.512 243.994H195.631V245H196.603V236.273H195.597V239.494H195.512C195.29 239.153 194.898 238.369 193.62 238.369C191.967 238.369 190.825 239.682 190.825 241.744C190.825 243.824 191.967 245.136 193.603 245.136ZM193.739 244.233C192.478 244.233 191.83 243.125 191.83 241.727C191.83 240.347 192.461 239.273 193.739 239.273C194.967 239.273 195.614 240.261 195.614 241.727C195.614 243.21 194.95 244.233 193.739 244.233ZM198.585 245H199.59V240.858C199.59 239.972 200.289 239.324 201.244 239.324C201.512 239.324 201.789 239.375 201.857 239.392V238.369C201.742 238.361 201.478 238.352 201.329 238.352C200.545 238.352 199.863 238.795 199.624 239.443H199.556V238.455H198.585V245ZM205.509 245.136C207.282 245.136 208.475 243.79 208.475 241.761C208.475 239.716 207.282 238.369 205.509 238.369C203.737 238.369 202.543 239.716 202.543 241.761C202.543 243.79 203.737 245.136 205.509 245.136ZM205.509 244.233C204.163 244.233 203.549 243.074 203.549 241.761C203.549 240.449 204.163 239.273 205.509 239.273C206.856 239.273 207.469 240.449 207.469 241.761C207.469 243.074 206.856 244.233 205.509 244.233ZM210.01 245H211.016V238.455H210.01V245ZM210.522 237.364C210.914 237.364 211.238 237.057 211.238 236.682C211.238 236.307 210.914 236 210.522 236C210.13 236 209.806 236.307 209.806 236.682C209.806 237.057 210.13 237.364 210.522 237.364ZM215.33 245.136C216.591 245.136 217.017 244.352 217.239 243.994H217.358V245H218.33V236.273H217.324V239.494H217.239C217.017 239.153 216.625 238.369 215.347 238.369C213.693 238.369 212.551 239.682 212.551 241.744C212.551 243.824 213.693 245.136 215.33 245.136ZM215.466 244.233C214.205 244.233 213.557 243.125 213.557 241.727C213.557 240.347 214.188 239.273 215.466 239.273C216.693 239.273 217.341 240.261 217.341 241.727C217.341 243.21 216.676 244.233 215.466 244.233ZM226.516 245C229.175 245 230.675 243.347 230.675 240.619C230.675 237.909 229.175 236.273 226.635 236.273H223.822V245H226.516ZM224.879 244.062V237.21H226.567C228.612 237.21 229.652 238.506 229.652 240.619C229.652 242.75 228.612 244.062 226.447 244.062H224.879ZM235.055 245.136C236.385 245.136 237.357 244.472 237.663 243.483L236.692 243.21C236.436 243.892 235.844 244.233 235.055 244.233C233.875 244.233 233.061 243.47 233.014 242.068H237.766V241.642C237.766 239.205 236.317 238.369 234.953 238.369C233.18 238.369 232.004 239.767 232.004 241.778C232.004 243.79 233.163 245.136 235.055 245.136ZM233.014 241.199C233.082 240.18 233.803 239.273 234.953 239.273C236.044 239.273 236.743 240.091 236.743 241.199H233.014ZM244.449 238.455H243.358L241.551 243.67H241.483L239.676 238.455H238.585L241.005 245H242.028L244.449 238.455ZM247.276 243.807H246.185L246.134 244.284C246.01 245.439 245.767 246.589 245.657 247.131H246.424C246.628 246.551 247.063 245.239 247.208 244.267L247.276 243.807ZM255.344 245C258.003 245 259.503 243.347 259.503 240.619C259.503 237.909 258.003 236.273 255.463 236.273H252.651V245H255.344ZM253.707 244.062V237.21H255.395C257.44 237.21 258.48 238.506 258.48 240.619C258.48 242.75 257.44 244.062 255.276 244.062H253.707ZM263.884 245.136C265.213 245.136 266.185 244.472 266.491 243.483L265.52 243.21C265.264 243.892 264.672 244.233 263.884 244.233C262.703 244.233 261.889 243.47 261.842 242.068H266.594V241.642C266.594 239.205 265.145 238.369 263.781 238.369C262.009 238.369 260.832 239.767 260.832 241.778C260.832 243.79 261.991 245.136 263.884 245.136ZM261.842 241.199C261.911 240.18 262.631 239.273 263.781 239.273C264.872 239.273 265.571 240.091 265.571 241.199H261.842ZM273.277 238.455H272.186L270.379 243.67H270.311L268.504 238.455H267.413L269.833 245H270.856L273.277 238.455ZM282.104 240.636C282.104 237.875 280.485 236.153 278.252 236.153C276.019 236.153 274.4 237.875 274.4 240.636C274.4 243.398 276.019 245.119 278.252 245.119C280.485 245.119 282.104 243.398 282.104 240.636ZM281.081 240.636C281.081 242.903 279.837 244.131 278.252 244.131C276.667 244.131 275.422 242.903 275.422 240.636C275.422 238.369 276.667 237.142 278.252 237.142C279.837 237.142 281.081 238.369 281.081 240.636ZM283.745 247.455H284.75V243.994H284.836C285.057 244.352 285.483 245.136 286.745 245.136C288.381 245.136 289.523 243.824 289.523 241.744C289.523 239.682 288.381 238.369 286.728 238.369C285.449 238.369 285.057 239.153 284.836 239.494H284.716V238.455H283.745V247.455ZM284.733 241.727C284.733 240.261 285.381 239.273 286.608 239.273C287.887 239.273 288.517 240.347 288.517 241.727C288.517 243.125 287.87 244.233 286.608 244.233C285.398 244.233 284.733 243.21 284.733 241.727ZM295.694 239.92C295.378 238.991 294.671 238.369 293.375 238.369C291.995 238.369 290.972 239.153 290.972 240.261C290.972 241.165 291.509 241.77 292.711 242.051L293.801 242.307C294.462 242.46 294.773 242.776 294.773 243.227C294.773 243.79 294.176 244.25 293.239 244.25C292.417 244.25 291.901 243.896 291.722 243.193L290.767 243.432C291.002 244.544 291.918 245.136 293.256 245.136C294.777 245.136 295.813 244.305 295.813 243.176C295.813 242.264 295.242 241.689 294.074 241.403L293.103 241.165C292.327 240.973 291.978 240.713 291.978 240.21C291.978 239.648 292.574 239.239 293.375 239.239C294.253 239.239 294.615 239.724 294.79 240.176L295.694 239.92ZM300.838 245H306.173V244.062H301.895V241.097H305.832V240.159H301.895V237.21H306.105V236.273H300.838V245ZM308.879 241.062C308.879 239.92 309.587 239.273 310.55 239.273C311.483 239.273 312.05 239.882 312.05 240.909V245H313.055V240.841C313.055 239.17 312.165 238.369 310.839 238.369C309.851 238.369 309.237 238.812 308.93 239.477H308.845V238.455H307.874V245H308.879V241.062ZM317.535 247.591C319.103 247.591 320.365 246.875 320.365 245.188V238.455H319.393V239.494H319.291C319.069 239.153 318.66 238.369 317.382 238.369C315.728 238.369 314.586 239.682 314.586 241.693C314.586 243.739 315.779 244.898 317.365 244.898C318.643 244.898 319.052 244.148 319.274 243.79H319.359V245.119C319.359 246.21 318.592 246.705 317.535 246.705C316.346 246.705 315.929 246.078 315.66 245.716L314.859 246.278C315.268 246.964 316.074 247.591 317.535 247.591ZM317.501 243.994C316.24 243.994 315.592 243.04 315.592 241.676C315.592 240.347 316.223 239.273 317.501 239.273C318.728 239.273 319.376 240.261 319.376 241.676C319.376 243.125 318.711 243.994 317.501 243.994ZM322.206 245H323.211V238.455H322.206V245ZM322.717 237.364C323.109 237.364 323.433 237.057 323.433 236.682C323.433 236.307 323.109 236 322.717 236C322.325 236 322.001 236.307 322.001 236.682C322.001 237.057 322.325 237.364 322.717 237.364ZM326.059 241.062C326.059 239.92 326.766 239.273 327.729 239.273C328.663 239.273 329.229 239.882 329.229 240.909V245H330.235V240.841C330.235 239.17 329.344 238.369 328.019 238.369C327.031 238.369 326.417 238.812 326.11 239.477H326.025V238.455H325.053V245H326.059V241.062ZM334.817 245.136C336.147 245.136 337.118 244.472 337.425 243.483L336.453 243.21C336.198 243.892 335.605 244.233 334.817 244.233C333.637 244.233 332.823 243.47 332.776 242.068H337.527V241.642C337.527 239.205 336.078 238.369 334.715 238.369C332.942 238.369 331.766 239.767 331.766 241.778C331.766 243.79 332.925 245.136 334.817 245.136ZM332.776 241.199C332.844 240.18 333.564 239.273 334.715 239.273C335.806 239.273 336.505 240.091 336.505 241.199H332.776ZM341.801 245.136C343.131 245.136 344.103 244.472 344.409 243.483L343.438 243.21C343.182 243.892 342.59 244.233 341.801 244.233C340.621 244.233 339.807 243.47 339.76 242.068H344.512V241.642C344.512 239.205 343.063 238.369 341.699 238.369C339.926 238.369 338.75 239.767 338.75 241.778C338.75 243.79 339.909 245.136 341.801 245.136ZM339.76 241.199C339.828 240.18 340.549 239.273 341.699 239.273C342.79 239.273 343.489 240.091 343.489 241.199H339.76ZM346.042 245H347.047V240.858C347.047 239.972 347.746 239.324 348.701 239.324C348.969 239.324 349.246 239.375 349.314 239.392V238.369C349.199 238.361 348.935 238.352 348.786 238.352C348.002 238.352 347.32 238.795 347.081 239.443H347.013V238.455H346.042V245Z" fill="#2D3748"/>
  <path d="M166.75 231.386H231.216V232.205H166.75V231.386ZM237.953 231.386H335.935V232.205H237.953V231.386ZM64 247.386H168.345V248.205H64V247.386ZM175.082 247.386H244.858V248.205H175.082V247.386ZM251.594 247.386H349.587V248.205H251.594V247.386Z" fill="#2D3748"/>
  <rect x="46" y="75" width="100" height="9" rx="4.5" fill="#E2E8F0"/>
  <rect x="46" y="321" width="100" height="9" rx="4.5" fill="#E2E8F0"/>
  <rect x="46" y="89" width="307" height="9" rx="4.5" fill="#E2E8F0"/>
  <rect x="46" y="335" width="307" height="9" rx="4.5" fill="#E2E8F0"/>
  <rect x="46" y="103" width="307" height="9" rx="4.5" fill="#E2E8F0"/>
  <rect x="46" y="117" width="307" height="9" rx="4.5" fill="#E2E8F0"/>
  <rect x="64" y="273" width="272" height="9" rx="4.5" fill="#E2E8F0"/>
  <rect x="64" y="287" width="289" height="9" rx="4.5" fill="#E2E8F0"/>
  <rect x="64" y="301" width="255" height="9" rx="4.5" fill="#E2E8F0"/>
  <defs>
    <filter id="filter0_d" x="3" y="3" width="398" height="389" filterUnits="userSpaceOnUse" color-interpolation-filters="sRGB">
      <feFlood flood-opacity="0" result="BackgroundImageFix"/>
      <feColorMatrix in="SourceAlpha" type="matrix" values="0 0 0 0 0 0 0 0 0 0 0 0 0 0 0 0 0 0 127 0" result="hardAlpha"/>
      <feOffset dx="3" dy="3"/>
      <feGaussianBlur stdDeviation="10"/>
      <feComposite in2="hardAlpha" operator="out"/>
      <feColorMatrix type="matrix" values="0 0 0 0 0 0 0 0 0 0 0 0 0 0 0 0 0 0 0.1 0"/>
      <feBlend mode="normal" in2="BackgroundImageFix" result="effect1_dropShadow"/>
      <feBlend mode="normal" in="SourceGraphic" in2="effect1_dropShadow" result="shape"/>
    </filter>
  </defs>
</svg>
