<svg width="663" height="664" viewBox="0 0 663 664" fill="none" xmlns="http://www.w3.org/2000/svg">
<path fill-rule="evenodd" clip-rule="evenodd" d="M331.691 135.548C370.188 137.664 406.084 151.215 438.403 172.274C472.277 194.346 509.445 219.045 519.861 258.156C530.128 296.704 500.59 332.564 491.435 371.392C481.092 415.265 494.765 468.431 462.802 500.165C430.173 532.56 377.631 529.791 331.691 529.99C285.56 530.19 237.655 527.648 199.755 501.303C161.41 474.649 134.717 432.36 125.35 386.558C116.545 343.502 134.15 301.212 150.494 260.425C165.74 222.38 182.399 183.293 216.117 160.055C249.373 137.136 291.386 133.332 331.691 135.548Z" fill="#EBF8FF"/>
<path d="M381.155 324.018C379.889 324.016 378.671 323.534 377.748 322.669C376.825 321.804 376.265 320.621 376.182 319.359L375.442 308.063C375.355 306.744 375.797 305.444 376.67 304.45C377.542 303.456 378.775 302.849 380.096 302.762L468.691 296.967C471.51 296.784 474.287 297.728 476.41 299.589C478.533 301.451 479.829 304.078 480.014 306.894C480.199 309.71 479.256 312.484 477.394 314.606C475.532 316.729 472.903 318.026 470.084 318.212L381.489 324.007C381.377 324.015 381.266 324.018 381.155 324.018Z" fill="#6C63FF"/>
<path d="M398.625 325.475C397.334 325.473 396.094 324.972 395.165 324.077C394.236 323.182 393.689 321.963 393.64 320.675L393.008 303.803C392.984 303.149 393.088 302.497 393.317 301.883C393.545 301.269 393.891 300.706 394.337 300.226C394.783 299.746 395.319 299.359 395.915 299.086C396.511 298.813 397.154 298.66 397.809 298.636L470.664 295.916C471.986 295.867 473.275 296.344 474.245 297.243C475.215 298.143 475.788 299.39 475.837 300.712L476.469 317.583C476.493 318.238 476.388 318.89 476.16 319.504C475.932 320.118 475.586 320.681 475.14 321.16C474.694 321.64 474.158 322.028 473.562 322.301C472.966 322.574 472.323 322.727 471.668 322.751L398.813 325.471C398.75 325.474 398.687 325.475 398.625 325.475Z" fill="#2F2E41"/>
<path d="M483.998 481H472.666C471.343 480.999 470.074 480.473 469.138 479.538C468.203 478.604 467.676 477.336 467.675 476.015V381.668C467.676 380.346 468.203 379.079 469.138 378.144C470.074 377.209 471.343 376.684 472.666 376.682H483.998C485.322 376.684 486.59 377.209 487.526 378.144C488.461 379.079 488.988 380.346 488.989 381.668V476.015C488.988 477.336 488.461 478.604 487.526 479.538C486.59 480.473 485.322 480.999 483.998 481V481Z" fill="#2F2E41"/>
<path d="M455.545 481H444.212C442.889 480.999 441.621 480.473 440.685 479.538C439.749 478.604 439.223 477.336 439.222 476.015V381.668C439.223 380.346 439.749 379.079 440.685 378.144C441.621 377.209 442.889 376.684 444.212 376.682H455.545C456.868 376.684 458.137 377.209 459.072 378.144C460.008 379.079 460.534 380.346 460.536 381.668V476.015C460.534 477.336 460.008 478.604 459.072 479.538C458.137 480.473 456.868 480.999 455.545 481V481Z" fill="#2F2E41"/>
<path d="M466.786 278.22C488.413 278.22 505.945 260.708 505.945 239.105C505.945 217.503 488.413 199.99 466.786 199.99C445.16 199.99 427.628 217.503 427.628 239.105C427.628 260.708 445.16 278.22 466.786 278.22Z" fill="#6C63FF"/>
<path d="M445.59 252.461C444.331 252.047 443.174 251.369 442.199 250.472C441.553 249.832 441.054 249.058 440.739 248.205C440.424 247.352 440.299 246.44 440.373 245.534C440.414 244.888 440.604 244.26 440.928 243.7C441.252 243.14 441.702 242.662 442.241 242.304C443.642 241.407 445.514 241.404 447.421 242.243L447.349 226.973L448.885 226.966L448.97 244.918L447.786 244.174C446.414 243.314 444.455 242.708 443.07 243.595C442.728 243.83 442.445 244.14 442.242 244.501C442.04 244.863 441.923 245.267 441.902 245.68C441.85 246.356 441.945 247.034 442.179 247.669C442.413 248.305 442.782 248.882 443.26 249.363C444.955 250.981 447.429 251.487 450.25 251.939L450.007 253.453C448.508 253.255 447.03 252.923 445.59 252.461V252.461Z" fill="#2F2E41"/>
<path d="M431.52 226.204L431.319 227.724L439.519 228.806L439.72 227.285L431.52 226.204Z" fill="#2F2E41"/>
<path d="M457.4 229.615L457.199 231.136L465.399 232.217L465.6 230.697L457.4 229.615Z" fill="#2F2E41"/>
<path d="M433.452 406.981H433.452C431.722 406.979 430.063 406.292 428.839 405.069C427.616 403.847 426.928 402.19 426.926 400.462C426.926 400.462 437.33 344.071 443.276 311.02C444.432 304.593 447.812 298.776 452.826 294.587C457.84 290.397 464.169 288.102 470.706 288.102H470.706C480.069 288.102 489.049 291.817 495.67 298.431C502.29 305.044 506.01 314.014 506.01 323.367V334.503C506.01 353.725 498.366 372.16 484.758 385.753C471.151 399.345 452.696 406.981 433.452 406.981V406.981Z" fill="#2F2E41"/>
<path d="M482.856 401.336C482.455 402.211 481.809 402.951 480.996 403.468C480.183 403.985 479.238 404.255 478.274 404.248L466.942 404.15C466.287 404.144 465.639 404.01 465.036 403.754C464.432 403.498 463.885 403.126 463.426 402.659C462.967 402.192 462.604 401.64 462.358 401.033C462.113 400.426 461.989 399.776 461.995 399.122L462.765 310.438C462.776 309.039 463.063 307.657 463.61 306.369C464.156 305.082 464.951 303.914 465.949 302.934C466.947 301.953 468.129 301.179 469.427 300.655C470.725 300.131 472.114 299.867 473.514 299.879C474.914 299.891 476.297 300.179 477.586 300.725C478.875 301.272 480.043 302.067 481.024 303.064C482.005 304.062 482.78 305.243 483.304 306.54C483.827 307.837 484.09 309.224 484.078 310.622L483.308 399.306C483.303 400.007 483.149 400.699 482.856 401.336Z" fill="#6C63FF"/>
<path d="M487.863 377.661C487.461 378.536 486.815 379.276 486.002 379.793C485.189 380.31 484.244 380.581 483.281 380.573L463.925 380.405C462.601 380.392 461.338 379.856 460.41 378.913C459.483 377.97 458.967 376.699 458.977 375.377L459.61 302.555C459.615 301.9 459.75 301.253 460.006 300.65C460.262 300.048 460.634 299.501 461.102 299.042C461.569 298.584 462.123 298.221 462.73 297.976C463.338 297.731 463.988 297.607 464.643 297.613L483.999 297.781C484.655 297.786 485.302 297.921 485.906 298.177C486.509 298.432 487.056 298.804 487.515 299.271C487.975 299.738 488.338 300.291 488.583 300.898C488.829 301.505 488.952 302.154 488.946 302.809L488.314 375.631C488.309 376.332 488.155 377.024 487.863 377.661V377.661Z" fill="#2F2E41"/>
<path d="M455.484 216.056C449.381 217.091 442.568 218.274 436.754 215.447C432.177 213.223 429.03 208.779 430.145 203.558C432.363 193.168 444.272 188.574 453.842 189.501C459.47 190.026 464.763 192.409 468.883 196.275C469.078 196.46 469.323 196.585 469.588 196.633C469.853 196.682 470.126 196.654 470.374 196.551C470.623 196.448 470.836 196.275 470.989 196.054C471.141 195.832 471.226 195.571 471.234 195.303C471.193 191.468 474.064 188.269 477.467 186.825C481.727 185.016 486.677 185.663 491.056 186.63C503.036 189.299 513.916 195.554 522.244 204.56C530.572 213.567 535.953 224.896 537.668 237.036C538.887 245.583 538.233 254.292 535.751 262.562C533.429 270.185 529.139 277.846 522.076 281.993C515.711 285.731 506.457 286.693 500.583 281.45C495.879 277.25 493.758 269.399 497.618 263.965C498.755 262.39 500.298 261.151 502.083 260.38C503.868 259.609 505.828 259.335 507.756 259.587C509.58 259.875 511.282 260.679 512.662 261.905C514.041 263.131 515.04 264.726 515.539 266.501C515.905 268.206 515.792 269.979 515.212 271.624C514.633 273.268 513.609 274.721 512.254 275.82C511.241 276.547 510.091 277.06 508.873 277.329C507.655 277.597 506.395 277.615 505.17 277.382C503.945 277.148 502.781 276.668 501.748 275.97C500.715 275.272 499.834 274.372 499.161 273.323C498.226 271.824 495.842 273.204 496.783 274.712C497.864 276.4 499.344 277.795 501.093 278.776C502.843 279.756 504.807 280.29 506.812 280.331C508.811 280.367 510.783 279.872 512.527 278.897C514.271 277.921 515.724 276.5 516.738 274.778C517.824 273.022 518.429 271.01 518.49 268.946C518.551 266.883 518.067 264.839 517.086 263.021C516.013 261.168 514.486 259.618 512.647 258.518C510.808 257.418 508.719 256.804 506.577 256.735C504.355 256.718 502.161 257.241 500.187 258.258C498.212 259.276 496.514 260.758 495.241 262.577C493.18 265.725 492.419 269.547 493.119 273.242C493.74 277.001 495.561 280.457 498.311 283.096C501.494 285.974 505.591 287.639 509.882 287.797C519.218 288.329 527.553 282.957 532.702 275.488C538.046 267.739 540.435 258.015 540.917 248.718C541.407 239.242 539.752 229.778 536.074 221.029C532.396 212.281 526.79 204.474 519.673 198.19C512.904 192.272 504.966 187.842 496.373 185.186C487.867 182.583 475.991 180.686 470.246 189.367C469.078 191.125 468.462 193.192 468.48 195.303L470.83 194.33C462.519 186.397 449.454 184.392 439.077 189.269C433.864 191.718 429.346 196.273 427.725 201.888C426.044 207.715 428.475 213.433 433.461 216.738C440.246 221.235 448.66 219.99 456.216 218.709C457.959 218.413 457.22 215.762 455.484 216.057V216.056Z" fill="#2F2E41"/>
<path d="M369.378 385.123H146.409C142.854 385.119 139.446 383.706 136.932 381.195C134.418 378.684 133.004 375.28 133 371.729V238.554C133.004 235.003 134.418 231.598 136.932 229.087C139.446 226.576 142.854 225.164 146.409 225.16H369.378C372.933 225.164 376.342 226.576 378.855 229.087C381.369 231.598 382.783 235.003 382.787 238.554V371.729C382.783 375.28 381.369 378.684 378.855 381.195C376.342 383.706 372.933 385.119 369.378 385.123ZM146.409 227.456C143.463 227.459 140.639 228.629 138.556 230.71C136.474 232.791 135.302 235.611 135.299 238.554V371.729C135.302 374.671 136.474 377.492 138.556 379.573C140.639 381.653 143.463 382.823 146.409 382.827H369.378C372.324 382.823 375.148 381.653 377.231 379.573C379.314 377.492 380.485 374.671 380.489 371.729V238.554C380.485 235.611 379.314 232.791 377.231 230.71C375.148 228.629 372.324 227.459 369.378 227.456H146.409Z" fill="#3F3D56"/>
<path d="M176.291 256.54C174.397 256.54 172.545 255.979 170.97 254.928C169.395 253.876 168.168 252.382 167.443 250.634C166.718 248.886 166.528 246.962 166.898 245.106C167.267 243.25 168.179 241.546 169.519 240.208C170.858 238.87 172.565 237.959 174.423 237.589C176.281 237.22 178.206 237.41 179.957 238.134C181.707 238.858 183.203 240.084 184.255 241.658C185.307 243.231 185.869 245.081 185.869 246.973C185.866 249.509 184.856 251.941 183.061 253.735C181.265 255.528 178.831 256.537 176.291 256.54V256.54ZM176.291 239.702C174.852 239.702 173.444 240.128 172.247 240.927C171.05 241.726 170.117 242.862 169.566 244.19C169.015 245.519 168.871 246.981 169.152 248.391C169.433 249.802 170.126 251.097 171.144 252.114C172.162 253.131 173.459 253.824 174.871 254.104C176.283 254.385 177.747 254.241 179.077 253.69C180.407 253.14 181.544 252.208 182.344 251.012C183.144 249.817 183.57 248.411 183.57 246.973C183.568 245.045 182.801 243.197 181.436 241.834C180.071 240.471 178.221 239.704 176.291 239.702Z" fill="#3F3D56"/>
<path d="M337.963 256.54C336.069 256.54 334.217 255.979 332.642 254.928C331.067 253.876 329.84 252.382 329.115 250.634C328.39 248.886 328.2 246.962 328.57 245.106C328.939 243.25 329.851 241.546 331.191 240.208C332.53 238.87 334.237 237.959 336.095 237.589C337.953 237.22 339.879 237.41 341.629 238.134C343.379 238.858 344.875 240.084 345.927 241.658C346.979 243.231 347.541 245.081 347.541 246.973C347.538 249.509 346.528 251.941 344.733 253.735C342.937 255.528 340.503 256.537 337.963 256.54V256.54ZM337.963 239.702C336.524 239.702 335.116 240.128 333.919 240.927C332.722 241.726 331.789 242.862 331.238 244.19C330.688 245.519 330.543 246.981 330.824 248.391C331.105 249.802 331.798 251.097 332.816 252.114C333.834 253.131 335.131 253.824 336.543 254.104C337.955 254.385 339.419 254.241 340.749 253.69C342.079 253.14 343.216 252.208 344.016 251.012C344.816 249.817 345.242 248.411 345.242 246.973C345.24 245.045 344.473 243.197 343.108 241.834C341.743 240.471 339.893 239.704 337.963 239.702V239.702Z" fill="#3F3D56"/>
<path d="M198.895 314.708H157.519C155.792 314.706 154.137 314.02 152.916 312.801C151.695 311.581 151.008 309.928 151.006 308.203V283.711C151.008 281.986 151.695 280.332 152.916 279.113C154.137 277.893 155.792 277.207 157.519 277.205H198.895C200.622 277.207 202.277 277.893 203.498 279.113C204.719 280.332 205.406 281.986 205.408 283.711V308.203C205.406 309.928 204.719 311.581 203.498 312.801C202.277 314.02 200.622 314.706 198.895 314.708V314.708Z" fill="#E6E6E6"/>
<path d="M278.582 314.708H237.206C235.479 314.706 233.824 314.02 232.603 312.801C231.382 311.581 230.695 309.928 230.693 308.203V283.711C230.695 281.986 231.382 280.332 232.603 279.113C233.824 277.893 235.479 277.207 237.206 277.205H278.582C280.308 277.207 281.964 277.893 283.185 279.113C284.405 280.332 285.092 281.986 285.094 283.711V308.203C285.092 309.928 284.405 311.581 283.185 312.801C281.964 314.02 280.308 314.706 278.582 314.708V314.708Z" fill="#E6E6E6"/>
<path d="M316.892 277.97C315.369 277.972 313.908 278.577 312.831 279.654C311.753 280.73 311.147 282.189 311.146 283.711V308.203C311.147 309.725 311.753 311.184 312.831 312.26C313.908 313.336 315.369 313.941 316.892 313.943H358.268C359.792 313.941 361.252 313.336 362.33 312.26C363.407 311.184 364.013 309.725 364.015 308.203V283.711C364.013 282.189 363.407 280.73 362.33 279.654C361.252 278.577 359.792 277.972 358.268 277.97H316.892Z" fill="#E6E6E6"/>
<path d="M199.278 363.692H157.902C156.175 363.69 154.52 363.004 153.299 361.785C152.078 360.565 151.391 358.912 151.389 357.187V332.695C151.391 330.97 152.078 329.316 153.299 328.097C154.52 326.877 156.175 326.191 157.902 326.189H199.278C201.005 326.191 202.66 326.877 203.881 328.097C205.102 329.316 205.789 330.97 205.791 332.695V357.187C205.789 358.912 205.102 360.565 203.881 361.785C202.66 363.004 201.005 363.69 199.278 363.692V363.692Z" fill="#E6E6E6"/>
<path d="M278.965 363.692H237.589C235.862 363.69 234.207 363.004 232.986 361.785C231.765 360.565 231.078 358.912 231.076 357.187V332.695C231.078 330.97 231.765 329.316 232.986 328.097C234.207 326.877 235.862 326.191 237.589 326.189H278.965C280.691 326.191 282.347 326.877 283.568 328.097C284.789 329.316 285.475 330.97 285.477 332.695V357.187C285.475 358.912 284.789 360.565 283.568 361.785C282.347 363.004 280.691 363.69 278.965 363.692V363.692Z" fill="#E6E6E6"/>
<path d="M358.651 363.692H317.276C315.549 363.69 313.893 363.004 312.673 361.785C311.452 360.565 310.765 358.912 310.763 357.187V332.695C310.765 330.97 311.452 329.316 312.673 328.097C313.893 326.877 315.549 326.191 317.276 326.189H358.651C360.378 326.191 362.033 326.877 363.254 328.097C364.475 329.316 365.162 330.97 365.164 332.695V357.187C365.162 358.912 364.475 360.565 363.254 361.785C362.033 363.004 360.378 363.69 358.651 363.692V363.692Z" fill="#E6E6E6"/>
<path d="M176.291 249.652C175.58 249.651 174.899 249.368 174.396 248.866C173.893 248.364 173.61 247.683 173.61 246.973V208.704C173.61 207.994 173.892 207.312 174.395 206.81C174.898 206.307 175.58 206.025 176.291 206.025C177.003 206.025 177.685 206.307 178.188 206.81C178.691 207.312 178.973 207.994 178.973 208.704V246.973C178.972 247.683 178.689 248.364 178.187 248.866C177.684 249.368 177.002 249.651 176.291 249.652V249.652Z" fill="#3F3D56"/>
<path d="M337.963 249.652C337.252 249.651 336.571 249.368 336.068 248.866C335.565 248.364 335.283 247.683 335.282 246.973V208.704C335.282 207.994 335.564 207.312 336.067 206.81C336.57 206.307 337.252 206.025 337.963 206.025C338.675 206.025 339.357 206.307 339.86 206.81C340.363 207.312 340.645 207.994 340.645 208.704V246.973C340.644 247.683 340.362 248.364 339.859 248.866C339.356 249.368 338.674 249.651 337.963 249.652V249.652Z" fill="#3F3D56"/>
<path d="M176.643 305.885C175.515 305.887 174.416 305.522 173.514 304.846L173.458 304.804L161.673 295.799C160.571 294.955 159.849 293.708 159.667 292.332C159.485 290.957 159.858 289.565 160.703 288.464C161.548 287.363 162.797 286.642 164.174 286.461C165.551 286.279 166.943 286.651 168.046 287.495L175.679 293.343L193.717 269.836C194.135 269.291 194.657 268.833 195.252 268.49C195.847 268.146 196.505 267.923 197.186 267.833C197.868 267.743 198.56 267.788 199.224 267.966C199.889 268.143 200.511 268.45 201.057 268.867L201.058 268.869L200.946 269.024L201.061 268.869C202.162 269.714 202.882 270.96 203.064 272.335C203.245 273.71 202.873 275.1 202.03 276.202L180.813 303.838C180.322 304.475 179.691 304.99 178.969 305.344C178.246 305.698 177.452 305.881 176.647 305.878L176.643 305.885Z" fill="#6C63FF"/>
<path d="M258.628 354.103C257.5 354.105 256.402 353.741 255.499 353.065L255.443 353.023L243.658 344.017C242.556 343.173 241.835 341.926 241.653 340.551C241.471 339.175 241.843 337.784 242.689 336.683C243.534 335.582 244.782 334.861 246.159 334.679C247.536 334.498 248.929 334.87 250.031 335.714L257.665 341.561L275.703 318.054C276.121 317.509 276.642 317.052 277.238 316.708C277.833 316.365 278.49 316.142 279.172 316.052C279.853 315.962 280.546 316.007 281.21 316.184C281.874 316.362 282.497 316.668 283.042 317.086L283.044 317.087L282.932 317.242L283.047 317.087C284.147 317.932 284.868 319.179 285.049 320.554C285.231 321.928 284.859 323.319 284.015 324.42L262.798 352.057C262.308 352.694 261.676 353.209 260.954 353.563C260.232 353.917 259.437 354.099 258.633 354.097L258.628 354.103Z" fill="#6C63FF"/>
<path d="M336.016 305.885C334.888 305.887 333.79 305.522 332.887 304.846L332.831 304.804L321.046 295.799C319.944 294.955 319.223 293.708 319.041 292.332C318.859 290.957 319.231 289.565 320.077 288.464C320.922 287.363 322.17 286.642 323.547 286.461C324.924 286.279 326.317 286.651 327.419 287.495L335.053 293.343L353.091 269.836C353.509 269.291 354.03 268.833 354.626 268.49C355.221 268.146 355.878 267.923 356.56 267.833C357.241 267.743 357.934 267.788 358.598 267.966C359.262 268.143 359.885 268.45 360.43 268.867L360.432 268.869L360.32 269.024L360.435 268.869C361.535 269.714 362.256 270.96 362.437 272.335C362.619 273.71 362.247 275.1 361.403 276.202L340.186 303.838C339.696 304.475 339.064 304.99 338.342 305.344C337.62 305.698 336.825 305.881 336.021 305.878L336.016 305.885Z" fill="#6C63FF"/>
</svg>
