<svg width="664" height="662" viewBox="0 0 664 662" fill="none" xmlns="http://www.w3.org/2000/svg">
<path fill-rule="evenodd" clip-rule="evenodd" d="M182.015 155.138C226.908 132.423 277.897 176.519 328.173 173.997C378.182 171.49 424.522 121.496 470.825 140.654C517.256 159.865 532.976 217.666 548.916 265.329C564.205 311.049 576.218 360.784 559.55 405.963C543.535 449.371 495.87 468.288 462.299 500.096C424.855 535.574 402.352 592.881 351.726 602.87C299.824 613.111 245.85 585.382 205.802 550.706C168.72 518.598 159.573 467.833 142.62 421.812C125.994 376.677 101.037 332.915 108.061 285.369C115.544 234.715 136.36 178.237 182.015 155.138Z" fill="#EBF8FF"/>
<path d="M516.146 410.087C515.661 409.551 515.3 408.917 515.088 408.227C514.875 407.537 514.816 406.809 514.916 406.094C515.015 405.379 515.27 404.695 515.663 404.089C516.056 403.483 516.577 402.971 517.189 402.588L513.272 385.485L521.817 388.679L524.227 404.431C524.802 405.502 524.965 406.746 524.683 407.928C524.402 409.11 523.696 410.149 522.7 410.846C521.704 411.543 520.487 411.85 519.279 411.711C518.071 411.571 516.956 410.993 516.146 410.087V410.087Z" fill="#FFB8B8"/>
<path d="M515.555 396.513L508.043 381.999L509.059 345.454L509.541 346.47C510.104 347.654 523.284 375.538 522.344 384.873L523.851 393.404L515.555 396.513Z" fill="#3F3D56"/>
<path d="M510.657 503.771H516.681L519.546 480.553L510.656 480.554L510.657 503.771Z" fill="#FFB8B8"/>
<path d="M509.12 501.806L520.983 501.805H520.984C522.989 501.805 524.911 502.601 526.329 504.018C527.747 505.435 528.543 507.356 528.543 509.36V509.605L509.121 509.606L509.12 501.806Z" fill="#2F2E41"/>
<path d="M451.14 499.196L456.944 500.809L465.93 479.207L457.364 476.827L451.14 499.196Z" fill="#FFB8B8"/>
<path d="M450.187 496.892L461.616 500.067L461.617 500.068C463.548 500.604 465.187 501.886 466.173 503.63C467.159 505.375 467.411 507.439 466.874 509.37L466.808 509.606L448.096 504.407L450.187 496.892Z" fill="#2F2E41"/>
<path d="M504.651 494.72L492.494 407.738L466.238 494.228L445.593 487.183L475.182 371.371L475.377 371.357L506.375 369.202L528.77 487.69L504.651 494.72Z" fill="#2F2E41"/>
<path d="M501.436 330.383C501.436 330.383 490.136 324.491 474.904 326.946C474.904 326.946 466.798 346.491 474.904 354.272L477.115 373.836C477.115 373.836 497.751 386.11 504.63 371.872L503.647 355.669C503.647 355.669 508.56 347.898 504.63 342.209C502.274 338.734 501.149 334.571 501.436 330.383V330.383Z" fill="#6C63FF"/>
<path d="M502.868 419.371L504.851 378.242L499.238 329.314L499.495 329.275C506.859 328.166 509.221 340.843 509.318 341.383L522.135 413.798L502.868 419.371Z" fill="#3F3D56"/>
<path d="M477.879 419.799L455.221 417.284L455.227 417.036C455.307 413.684 457.258 334.871 462.722 329.289C468.219 323.674 478.592 326.104 479.031 326.21L479.25 326.263L477.385 359.612L477.879 419.799Z" fill="#3F3D56"/>
<path d="M482.053 372.695C481.366 372.92 480.639 372.992 479.922 372.905C479.205 372.819 478.515 372.577 477.902 372.195C477.289 371.814 476.767 371.303 476.372 370.698C475.978 370.093 475.721 369.41 475.62 368.695L458.39 365.322L464.784 358.817L480.166 363.018C481.378 362.928 482.582 363.285 483.549 364.022C484.515 364.76 485.178 365.826 485.41 367.019C485.643 368.211 485.429 369.448 484.811 370.494C484.192 371.54 483.211 372.323 482.053 372.695V372.695Z" fill="#FFB8B8"/>
<path d="M472.858 368.746L467.244 367.54C458.956 370.031 444.489 361.262 438.642 357.367C437.542 356.634 437.185 355.182 437.581 353.052C438.167 350.072 439.81 347.404 442.209 345.54L462.802 329.223L468 328.355L469.544 337.097L456.423 351.18L475.737 361.685L472.858 368.746Z" fill="#3F3D56"/>
<path d="M470.638 319.545V308.209C470.638 303.412 472.544 298.812 475.938 295.421C479.332 292.029 483.935 290.124 488.735 290.124C493.534 290.124 498.137 292.029 501.531 295.421C504.925 298.812 506.832 303.412 506.832 308.209V319.545C506.831 320.189 506.575 320.807 506.119 321.262C505.663 321.717 505.045 321.974 504.401 321.974H473.069C472.424 321.974 471.806 321.717 471.351 321.262C470.895 320.807 470.638 320.189 470.638 319.545V319.545Z" fill="#2F2E41"/>
<path d="M488.007 321.863C495.335 321.863 501.275 315.927 501.275 308.604C501.275 301.281 495.335 295.345 488.007 295.345C480.68 295.345 474.739 301.281 474.739 308.604C474.739 315.927 480.68 321.863 488.007 321.863Z" fill="#FFB8B8"/>
<path d="M474.375 308.553C474.248 308.407 474.155 308.235 474.1 308.049C474.045 307.864 474.031 307.668 474.059 307.477L475.631 296.54C475.662 296.317 475.748 296.106 475.882 295.925C476.015 295.744 476.191 295.6 476.395 295.504C484.417 291.752 492.552 291.747 500.575 295.49C500.787 295.591 500.971 295.745 501.106 295.937C501.241 296.13 501.324 296.355 501.346 296.589L502.396 307.54C502.414 307.727 502.392 307.916 502.333 308.095C502.273 308.273 502.177 308.437 502.051 308.577C501.924 308.716 501.77 308.827 501.598 308.903C501.426 308.979 501.239 309.018 501.051 309.018H498.39C498.134 309.018 497.882 308.944 497.665 308.806C497.449 308.668 497.276 308.472 497.167 308.24L496.018 305.781C495.944 305.622 495.82 305.491 495.665 305.408C495.509 305.326 495.332 305.296 495.158 305.323C494.984 305.351 494.824 305.434 494.702 305.56C494.58 305.686 494.502 305.849 494.48 306.023L494.253 307.836C494.212 308.162 494.053 308.462 493.806 308.68C493.56 308.898 493.242 309.018 492.913 309.018H475.396C475.202 309.018 475.011 308.977 474.835 308.896C474.659 308.816 474.502 308.699 474.375 308.553Z" fill="#2F2E41"/>
<path d="M418.655 204.791H121V390.016H418.655V204.791Z" fill="#E6E6E6"/>
<path d="M195.476 240.474H140.96V275.885H195.476V240.474Z" fill="white"/>
<path d="M263.216 240.474H208.7V275.885H263.216V240.474Z" fill="white"/>
<path d="M330.955 240.474H276.44V275.885H330.955V240.474Z" fill="white"/>
<path d="M398.695 240.474H344.18V275.885H398.695V240.474Z" fill="white"/>
<path d="M195.476 290.594H140.96V326.005H195.476V290.594Z" fill="white"/>
<path d="M263.216 290.594H208.7V326.005H263.216V290.594Z" fill="white"/>
<path d="M330.955 290.594H276.44V326.005H330.955V290.594Z" fill="white"/>
<path d="M398.695 290.594H344.18V326.005H398.695V290.594Z" fill="white"/>
<path d="M195.476 340.714H140.96V376.124H195.476V340.714Z" fill="white"/>
<path d="M263.216 340.714H208.7V376.124H263.216V340.714Z" fill="white"/>
<path d="M330.955 340.714H276.44V376.124H330.955V340.714Z" fill="white"/>
<path d="M398.695 340.714H344.18V376.124H398.695V340.714Z" fill="white"/>
<path d="M198.957 226.582C203.474 226.582 207.135 222.924 207.135 218.411C207.135 213.898 203.474 210.239 198.957 210.239C194.441 210.239 190.78 213.898 190.78 218.411C190.78 222.924 194.441 226.582 198.957 226.582Z" fill="white"/>
<path d="M334.156 226.582C338.672 226.582 342.333 222.924 342.333 218.411C342.333 213.898 338.672 210.239 334.156 210.239C329.64 210.239 325.979 213.898 325.979 218.411C325.979 222.924 329.64 226.582 334.156 226.582Z" fill="white"/>
<path d="M202.228 183H195.686V220.59H202.228V183Z" fill="#E6E6E6"/>
<path d="M337.427 183H330.885V220.59H337.427V183Z" fill="#E6E6E6"/>
<path d="M383.765 258.18C383.763 261.138 382.692 263.996 380.749 266.229C378.807 268.461 376.123 269.918 373.192 270.332C370.26 270.746 367.278 270.089 364.793 268.481C362.307 266.874 360.486 264.424 359.663 261.582C358.84 258.74 359.071 255.697 360.314 253.012C361.557 250.327 363.727 248.18 366.427 246.965C369.126 245.751 372.174 245.551 375.009 246.403C377.844 247.254 380.277 249.099 381.86 251.599C383.107 253.567 383.768 255.85 383.765 258.18V258.18Z" fill="#6C63FF"/>
<path d="M381.86 251.599L369.725 263.723C368.962 262.543 364.713 257.06 364.713 257.06C365.258 256.51 365.839 255.997 366.452 255.525L369.976 260.22L380.439 249.764C380.97 250.33 381.446 250.944 381.86 251.599V251.599Z" fill="white"/>
<path d="M248.286 308.299C248.283 311.258 247.212 314.116 245.269 316.348C243.327 318.581 240.643 320.038 237.712 320.452C234.781 320.865 231.798 320.208 229.313 318.601C226.828 316.993 225.006 314.544 224.183 311.702C223.361 308.86 223.592 305.817 224.834 303.131C226.077 300.446 228.247 298.299 230.947 297.085C233.647 295.871 236.694 295.671 239.529 296.522C242.365 297.373 244.797 299.218 246.381 301.718C247.627 303.687 248.288 305.969 248.286 308.299V308.299Z" fill="#6C63FF"/>
<path d="M246.381 301.718L234.245 313.843C233.483 312.663 229.233 307.179 229.233 307.179C229.778 306.629 230.359 306.117 230.973 305.645L234.496 310.34L244.959 299.884C245.49 300.449 245.966 301.063 246.381 301.718V301.718Z" fill="white"/>
<path d="M180.546 308.299C180.543 311.258 179.472 314.116 177.53 316.348C175.587 318.581 172.904 320.038 169.972 320.452C167.041 320.865 164.058 320.208 161.573 318.601C159.088 316.993 157.266 314.544 156.444 311.702C155.621 308.86 155.852 305.817 157.094 303.131C158.337 300.446 160.508 298.299 163.207 297.085C165.907 295.871 168.954 295.671 171.79 296.522C174.625 297.373 177.058 299.218 178.641 301.718C179.887 303.687 180.548 305.969 180.546 308.299V308.299Z" fill="#6C63FF"/>
<path d="M178.641 301.718L166.506 313.843C165.743 312.663 161.494 307.179 161.494 307.179C162.038 306.629 162.619 306.117 163.233 305.645L166.757 310.34L177.22 299.884C177.75 300.449 178.226 301.063 178.641 301.718V301.718Z" fill="white"/>
<path d="M588.46 510H382.64C382.497 510 382.359 509.943 382.258 509.842C382.157 509.741 382.1 509.603 382.1 509.46C382.1 509.317 382.157 509.18 382.258 509.078C382.359 508.977 382.497 508.92 382.64 508.92H588.46C588.603 508.92 588.74 508.977 588.842 509.078C588.943 509.18 589 509.317 589 509.46C589 509.603 588.943 509.741 588.842 509.842C588.74 509.943 588.603 510 588.46 510Z" fill="#3F3D56"/>
</svg>
